<svg id="Layer_1" data-name="Layer 1" xmlns="http://www.w3.org/2000/svg" viewBox="0 0 374.26 266.55">
  <g id="Layer_2" data-name="Layer 2">
    <g id="Layer_7" data-name="Layer 7">
      <path d="M1.48,1.75,6,7.28C4.74,5.66,3.32,4,1.48,1.75Z" transform="translate(0 60.67)" fill="#FFEE59"/>
      <path d="M6.06,7.32h0L6,7.28Z" transform="translate(0 60.67)" fill="#FFEE59"/>
      <path d="M372.7,4.5,371,5.88Z" transform="translate(0 60.67)" fill="#FFEE59"/>
      <path d="M91.46,104.74l.73-.16c4.34,4.62.74,1.88,4.85,6,2.22,1,6.58,7.17,8.33,8.28-.09,0,1.86,2.13,1.52,2.21,1,.27,2.1,2.07,3.45,3.28.56.37-.22-.46-.44-.93l3,2.86c1,1.3,1,1.82-.22.58,3.65,4,14.35,15.51,25.24,27s22,22.83,26.22,26.87c-.73-1.39-3.48-3.73-3.93-5.22,2.46,1.91,3.09,3.33,4.35,4,.07,1.6,4.57,5,5.45,7.42l1.06.2.81,1.35,8.78,8.36c1.59,1.66,2.07,2.16,2.48,2.62l2,2.35L188,205l.49.55.26.29c0,.09.09,0,.13-.05l.14-.14,1.17-1.26,2.84-3.07,3.45-3.87c1.08-1.23,2.07-2.2,3-3.22l4.9-5.32c.45-.48.53-.59.71-.81l.51-.58c.33-.39.65-.75,1-1.11a23.59,23.59,0,0,1,2-2c-.41.4-1.75,1.23-.59-.16.59.16,3.1-3.68,4.1-3.93,1.19-1.3,5.26-5.32,3.38-4.46.95-.42,4.62-4,2.72-1.57a38.94,38.94,0,0,0,3.22-3.33l-1.69,1.44c4-4.23,6.61-6.09,8.79-9.26l-1.7,1.34c2.4-2.52,4.39-4.64,5.84-5.12L230.31,162c4-4.14,6.41-6.66,9.48-10.38l-1.2,1.22c3.78-4.87,25.59-28.33,28.91-33l-2.14,1.53,3.07-3.79c-.41.41-.5,2.81-.95,3L293,93.46c11-11.7,21.75-23.41,25.08-26.86,2.75-2.73.84-.15.85-.08,3.08-3.58,1.13-1.75,3.85-4.69.77-.77,0,.34-.36.83A26.52,26.52,0,0,0,324.73,60c-1.55,1.55-1.2.58-2,1.09l3.51-3.78v.34a50.07,50.07,0,0,1,5-6.24c5.83-6.24,12-13.16,17.8-19.54a37,37,0,0,1-2.37,2.93c.77-.86,1.93-2.18,2.68-2.93-1.49,1.44,2.33-2.77,1.21-1.6,4-4.89,9.59-10.8,13.18-15.07a39.56,39.56,0,0,1,3.52-5.2c.91-1.15,1.87-2.23,2.62-3l1.27-1.26,3.11-2.5c-.35.28-3,2.4-4.41,3.56l-.22.22c-3.19,2.66-.78.59-3.9,3.19-.21.09,2.68-2.28,5.24-4.35-2.3,1.87-4.63,3.69-5.52,4.51-2.17,1.75.2-.25-2.43,1.86-1.85,1.51-4.2,3.58-6.35,5.3v-.05C351.46,21.67,349,24.2,344.27,28l.46-.46c-1.7,1.33-4.84,4.17-7.86,6.62.87-.69,1.69-1.23-.06.32-3.47,2.82-5.67,4.92-8.26,6.93l-2.19,2.22c-5.86,5.1-20.21,17.88-34.29,30.93s-28,26.3-33.62,31.68l.4-.47c-8.56,8.21-21.64,20.74-34.63,33.49-6.49,6.38-13,12.8-18.88,18.75L197,166.54l-3.74,3.85-1.73,1.8-.83.87-.41.43c-.13.13-.31.31-.27.31a1.12,1.12,0,0,0-.38.34c-.11.12-.15.32-.31.39l-.38.3c-.06,0-.12.13-.17.1l-.16-.21c.21.49.15.9-.09.63l-.48-.47c-.07-.1-.13-.2-.19-.3s-.12-.11-.16-.08-.09.07-.21-.05a2.22,2.22,0,0,1-.28-.33l-2.54-2.42c-5.13-4.78-17.15-16.73-29-28.5s-23.65-23.43-28-27.86c-5.28-4.18-11-10.28-16-14.52l.58.35C109.48,98.83,101,90.7,92.4,82.54S75,66.19,71.9,63.48l.77.79c-5.47-4.63-4.4-4.33-8.46-8.22.2.84-4.5-3.1-6.24-4.66h.13c-2.66-2.32-8.8-7.45-13.1-11.34h.31c-3.74-3.11-10.43-9.31-13-11.62C26.4,23,17.28,14.79,9.14,7.88,7.44,6.33,5.7,4.82,4,3.33l-.78-.65S2.62,2.27,2,1.75.62.61.26.26-.13-.16.5.53s1.88,2.2,4.12,4.94l-.17-.16,1.8,2.14C8.39,10,9.44,11.16,9.25,11l-3-3.5c2.17,2.57.63.8-.21-.17l2.48,3c.44.49-.3-.39-.63-.8,1.18,1.38,2.84,3.26,4.25,5,2.23,2.62.06.25,2.65,3.33C28.49,34,41.79,49.68,56.06,65.6c.25.43-.13,0-.58-.43,4.37,4.73,8.17,9,12.2,13.26a11.31,11.31,0,0,1,1.4,2.21c-.23-.45,5.24,5.51,10.87,11.58,2.8,3,5.64,6.12,7.8,8.46S91.39,104.63,91.46,104.74Z" transform="translate(0 60.67)" fill="#FFEE59"/>
    </g>
    <g id="Layer_2-2" data-name="Layer 2">
      <g id="Layer_7-2" data-name="Layer 7">
        <path d="M1.48-58.93,6-53.4C4.74-55,3.32-56.68,1.48-58.93Z" transform="translate(0 60.67)" fill="#FA822D"/>
        <path d="M6.06-53.36h0L6-53.4Z" transform="translate(0 60.67)" fill="#FA822D"/>
        <path d="M372.7-56.18,371-54.8Z" transform="translate(0 60.67)" fill="#FA822D"/>
        <path d="M91.46,44.06l.73-.16c4.34,4.62.74,1.88,4.85,6,2.22,1,6.58,7.17,8.33,8.28-.09,0,1.86,2.13,1.52,2.21,1,.27,2.1,2.07,3.45,3.28.56.37-.22-.46-.44-.93l3,2.86c1,1.3,1,1.82-.22.58,3.65,4,14.35,15.51,25.24,27s22,22.83,26.22,26.87c-.73-1.39-3.48-3.73-3.93-5.22,2.46,1.91,3.09,3.33,4.35,4,.07,1.6,4.57,5,5.45,7.42l1.06.2.81,1.35,8.78,8.36c1.59,1.66,2.07,2.16,2.48,2.62l2,2.35,2.86,3.19.49.55.26.29c0,.09.09,0,.13,0L189,145l1.17-1.26,2.84-3.07,3.45-3.87c1.08-1.23,2.07-2.2,3-3.22l4.9-5.32c.45-.48.53-.59.71-.81l.51-.58c.33-.39.65-.75,1-1.11a25.16,25.16,0,0,1,2-2c-.41.4-1.75,1.23-.59-.16.59.16,3.1-3.68,4.1-3.93,1.19-1.3,5.26-5.32,3.38-4.46.95-.42,4.62-4,2.72-1.57a37.53,37.53,0,0,0,3.22-3.33l-1.69,1.44c4-4.23,6.61-6.09,8.79-9.26l-1.7,1.34c2.4-2.52,4.39-4.64,5.84-5.12l-2.36,2.64c4-4.14,6.41-6.66,9.48-10.38l-1.2,1.22c3.78-4.87,25.59-28.33,28.91-33l-2.14,1.53,3.07-3.79c-.41.41-.5,2.81-.95,3L293,32.78c11-11.7,21.75-23.41,25.08-26.86,2.75-2.73.84-.15.85-.08,3.08-3.58,1.13-1.75,3.85-4.69.77-.77,0,.34-.36.83a25.45,25.45,0,0,0,2.31-2.66c-1.55,1.55-1.2.58-2,1.09l3.51-3.78V-3a50.81,50.81,0,0,1,5-6.24c5.83-6.24,12-13.16,17.8-19.54a35.26,35.26,0,0,1-2.37,2.93c.77-.86,1.93-2.18,2.68-2.93-1.49,1.44,2.33-2.77,1.21-1.6,4-4.89,9.59-10.8,13.18-15.07a39.56,39.56,0,0,1,3.52-5.2c.91-1.15,1.87-2.23,2.62-3l1.27-1.26,3.11-2.5c-.35.28-3,2.4-4.41,3.56l-.22.22c-3.19,2.66-.78.59-3.9,3.19-.21.09,2.68-2.28,5.24-4.35-2.3,1.87-4.63,3.69-5.52,4.51-2.17,1.75.2-.25-2.43,1.86-1.85,1.51-4.2,3.58-6.35,5.3v-.05c-5.21,4.19-7.67,6.72-12.4,10.52l.46-.46c-1.7,1.33-4.84,4.17-7.86,6.62.87-.69,1.69-1.23-.06.32-3.47,2.82-5.67,4.92-8.26,6.93L326.36-17c-5.86,5.1-20.21,17.88-34.29,30.93s-28,26.3-33.62,31.68l.4-.47c-8.56,8.21-21.64,20.74-34.63,33.49-6.49,6.38-13,12.8-18.88,18.75L197,105.86l-3.74,3.85-1.73,1.8-.83.87-.41.43c-.13.13-.31.31-.27.31a1.24,1.24,0,0,0-.38.34c-.11.12-.15.32-.31.39l-.38.3c-.06,0-.12.13-.17.1l-.16-.21c.21.49.15.9-.09.63l-.48-.47a2.2,2.2,0,0,1-.19-.3c-.08-.13-.12-.11-.16-.08s-.09.07-.21,0a2.22,2.22,0,0,1-.28-.33L184.67,111c-5.13-4.78-17.15-16.73-29-28.5s-23.65-23.43-28-27.86c-5.28-4.18-11-10.28-16-14.52l.58.35C109.48,38.15,101,30,92.4,21.86S75,5.51,71.9,2.8l.77.79C67.2-1,68.27-.74,64.21-4.63c.2.84-4.5-3.1-6.24-4.66h.13c-2.66-2.32-8.8-7.45-13.1-11.34h.31c-3.74-3.11-10.43-9.31-13-11.62-5.91-5.43-15-13.64-23.17-20.55C7.44-54.35,5.7-55.86,4-57.35L3.22-58s-.6-.41-1.22-.93S.62-60.07.26-60.42s-.39-.42.24.27,1.88,2.2,4.12,4.94l-.17-.16,1.8,2.14c2.14,2.55,3.19,3.71,3,3.55l-3-3.5c2.17,2.57.63.8-.21-.17l2.48,3c.44.49-.3-.39-.63-.8,1.18,1.38,2.84,3.26,4.25,5,2.23,2.62.06.25,2.65,3.33C28.49-26.68,41.79-11,56.06,4.92c.25.43-.13,0-.58-.43,4.37,4.73,8.17,9,12.2,13.26A11.31,11.31,0,0,1,69.08,20c-.23-.45,5.24,5.51,10.87,11.58,2.8,3,5.64,6.12,7.8,8.46S91.39,44,91.46,44.06Z" transform="translate(0 60.67)" fill="#FA822D"/>
      </g>
    </g>
  </g>
</svg>
