<svg xmlns="http://www.w3.org/2000/svg" viewBox="0 0 3533 3533">
<style type="text/css">
  
  .mask-lines{
      stroke-dasharray: 2000;
      animation: linesincrease 4s linear forwards;
  }

  .lines{
    transform-origin: center;
    animation: linesrotate 200s linear infinite 3.5s;  
  }

  .circle{
    animation: fadeIn 2s linear forwards;
  }

  .logo_top, .logo_bottom {
    opacity: 0;
    animation: fadeIn 2s linear forwards 1s;
  }

  @keyframes linesincrease {
    from {
      stroke-dashoffset: 0;
    }
    to {
      stroke-dashoffset: 2000;
    }
  }

  @keyframes linesrotate {
    from {
        transform: rotate(0);
    }
    to {
        transform: rotate(360deg);
    }
  }
  
  @keyframes fadeIn {
    from {
      opacity: 0;
    }
    to {
      opacity: 1;
    }
  }
</style>
  <g class="lines">
    <g id="line-20">
      <path mask="url(#mask-lines-20)" d="M983.33,205.06c1.33-4.44,1.86-12.1,2.44-19.35A89.45,89.45,0,0,0,983.33,205.06Z" transform="translate(806.28 1226.72)" fill="#f6c051"/>
      <path mask="url(#mask-lines-20)" d="M985.8,185.57v-.11l0,.25Z" transform="translate(806.28 1226.72)" fill="#f6c051"/>
      <path mask="url(#mask-lines-20)" d="M850.4-1221.35c.2,1.81.42,3.88.65,6A20.38,20.38,0,0,0,850.4-1221.35Z" transform="translate(806.28 1226.72)" fill="#f6c051"/>
      <path mask="url(#mask-lines-20)" d="M1010.64-165.66l-3.32-1.11c.93-17.2,4.2-5,4.31-20.91-2.27-3.11-1.77-9.72-1-16.23s1.92-12.94.73-15.69c.4.13,1-7.66,2.59-7.17-2.65-2.38-.17-8-.59-12.92-.69-1.78-.93,1.31-1.86,2.64l-.37-11.25c1.17-4.4,2.94-5.49,3-.71,1.38-14.7,4.92-57.34,8.3-100.27s6.51-86.15,6.61-102c-2.91,4.08-1.72,13.86-6.06,17.57-1.84-8.37,1.52-12.33-.72-16,6.41-3.21,2.53-18.4,9.34-24.75l-3.45-2.4,2.46-4.16c-1.55-36.83-1.36-8.42,1.52-41.07.6-18.89-4.22-27.87-1.65-38.39-.14,1.57-2.74,5.73-3.45.84,3.46-.84-1.75-13,1.85-15.42-.17-4.79,1.13-20.33-3.92-15.07,2.5-2.64,4.25-16.5,5.88-8.24.4-4.68,1.37-9.21.49-12.57l-1.68,6c.14-15.79,4.45-24.4.54-34.68l-2.28,5.83c.18-9.44.2-17.33,5.37-21l1,9.69c.76-15.65,1-25.09-1-38.14l-.39,4.66c-2.07-8.32-3-34.21-4.38-60s-3-51.3-6.13-59l-4.55,7-3.1-13.17c-.1,1.56,13.67,6.36,12.2,7.66.46-14.11,1.5-57.88,2.87-101.37s3.14-86.72,5.38-99.75c3.18-10.52,7.84-1.89,8.6-1.78-1.19-12.8-4.92-5.52-4-16.4,1-3,3.84.62,4.45,2.29-.34-4.77,1.59-9.2-.7-9.56-2.09,6-8.09,3.44-12.18,6l1.13-14,3.87.62c.27-3.12-10.33-7.91-7.69-21.66,2.64-23.2,2.26-48.4,4.14-71.73,2.45.36,3.7,5.26,4.93,10.17.26-3.13-.16-7.9,1.74-10.78-4.6,5.64-2.49-9.79-4.52-5.38-4.69-8.55-4.56-18.35-4-27.89s1.54-18.85-1.7-26.39c-4.64-.66-44.5-8.74-85.35-16.64s-82.53-15.66-88.19-15.66c-.06-4.68-.12-9.34.73-10.77-2.61,1.21-3.34,10.41-1.54,15.3l6.09.85c2.73,11.25-3.44,2.63-2.42,13.62-4.87.59-6.52-9.52-7.52-18.43-.11,8-3.2,16,2.37,19.27-1.59,7.53-6-.84-7.58,8.24,1.86,6.46,7.11,14.95,4.7,22.38l-.86-.13c-1.93,9,.34,15.93,2.56,22.64s4.41,13.23,2.5,21.48l-1.68-1.78c-2.36,5.83,2,17.31-.24,27.83.75-3,4-5.61,4.89.71-2.19,12.1,1.21,20.35-1.81,29.19l5,8.48c.82,21.06,5.27,73.17,9.71,125.3s8.89,104.28,10.36,125.43l-.69-1.65c2.74,32.22,5.84,81.41,9.28,130.86s7.18,99.19,11,132.49c-2.52,10.3-1,24.51-1.29,35.26.91-6,3.14-3.93,3.25.73,1.33,32.75,2.17,2.21,5,35.33,2.26,19.07,4.27,65.09,5.79,110.57s2.56,90.43,2.45,107.36c2.16,9.09,2.84,19.31,3.39,29.49s.94,20.3,2.37,29.21l-.84-1.8c1.07,9.57,2.14,41.43,3.3,73.68s2.41,64.88,3.43,76l.23-3c2.55,19.39-.43,16.75-.49,32,2.74-2,5.08,14.61,5.56,20.94L932.1.93c.92,9.56,4.15,31.21,5.1,47l-1.41-.62c2,13.16,2.42,37.91,3,47.37.18,10.81.09,24.56.35,39.22s.87,30.23,2.21,44.69q-1.14,9.34-2.15,18.69l.43,2.74a68.24,68.24,0,0,0,5.79,4.1,51.66,51.66,0,0,0,12.9,6.17c4.79,1.37,9.76,1.55,14.08-1s8.12-7.83,10.51-17.38l1,.61.25-7.56c1-9.06-.06-13.25,1-12.63l-.76,12.41c.77-9.1,1-2.75,1.43.73.31-3.8.64-7.49,1.14-10.52-.32-1.79-.53,1.32-.84,2.74-.11-4.9-.79-11.72,0-17.69.6-9.32,1.85-.59,2.58-11.47,2-28.69,4.26-56.93,6.4-85.25s4.21-56.72,5.77-85.72c.72-1.32.6.25.78,1.93.4-17.48,1.58-33,1.8-48.91a17.59,17.59,0,0,1,2.88-6.94c-.77,1.32.21-20.65,1.41-43.12.6-11.24,1.26-22.6,1.81-31.24S1010.52-165.3,1010.64-165.66Z" transform="translate(806.28 1226.72)" fill="#f6c051"/>
    </g>
    <g id="line-19">
      <path mask="url(#mask-lines-19)" d="M878.77,214.31c-.11-4.64-2-12.09-3.66-19.16A89,89,0,0,0,878.77,214.31Z" transform="translate(806.28 1226.72)" fill="#e29b43"/>
      <path mask="url(#mask-lines-19)" d="M875.09,195l0-.1.06.25Z" transform="translate(806.28 1226.72)" fill="#e29b43"/>
      <path mask="url(#mask-lines-19)" d="M311.56-1101.22c.74,1.67,1.59,3.56,2.46,5.48A20.78,20.78,0,0,0,311.56-1101.22Z" transform="translate(806.28 1226.72)" fill="#e29b43"/>
      <path mask="url(#mask-lines-19)" d="M790.18-146.71l-3.5,0c-4.43-16.65,2.45-6.06-2.36-21.22-3.12-2.26-4.69-8.69-5.94-15.14s-2.17-12.9-4.16-15.14c.42,0-1.4-7.6.26-7.62-3.27-1.45-2.64-7.57-4.57-12.11-1.2-1.48-.47,1.53-.95,3.08l-3.82-10.58c-.25-4.55,1.1-6.13,2.6-1.59-3.23-14.41-13-56.06-23.1-97.93s-20.43-83.94-25.23-99c-1.5,4.77,2.65,13.7-.33,18.58-4.34-7.4-2.36-12.2-5.64-15,5.11-5-3.28-18.28,1.24-26.42l-4-1.22,1.06-4.72c-12.85-34.55-3.9-7.58-11.25-39.52-5.26-18.16-12.63-25.21-13.43-36,.35,1.53-.83,6.29-3,1.86,3-1.87-5.68-11.86-3-15.24-1.64-4.5-5.2-19.68-8.39-13.12,1.57-3.28-1-17,3-9.66-1.06-4.57-1.53-9.18-3.41-12.1l.25,6.22c-4.74-15.06-3.3-24.57-10.2-33.14l-.37,6.25c-2.74-9-5.16-16.55-1.39-21.67l3.93,8.91c-4.12-15.12-6.82-24.17-12.74-36l1.06,4.55c-4.53-7.26-13.47-31.59-22.68-55.65s-18.7-47.87-24.05-54.19l-2.16,8.12-7-11.57c.39,1.51,15,1.82,14,3.51-3.93-13.56-16.46-55.5-28.59-97.29S558.45-932,556.55-945c-.22-11,6.88-4.23,7.63-4.35-5.08-11.81-6.38-3.73-8.85-14.37.06-3.14,3.84-.6,4.94.8-1.8-4.43-1.33-9.24-3.62-8.87-.14,6.31-6.63,5.77-9.74,9.43l-3.25-13.66,3.87-.61c-.71-3.05-12.27-4.33-14-18.23-4.65-22.88-12.81-46.73-18.22-69.5,2.44-.41,5.14,3.86,7.82,8.15-.71-3-2.59-7.45-1.67-10.78-2.64,6.78-5.39-8.54-6-3.73-7.1-6.67-10-16-12.42-25.29s-4.36-18.4-9.77-24.57c-4.62.81-45,5.44-86.31,10.54s-83.33,10.62-88.72,12.37c-1.5-4.44-3-8.85-2.63-10.47-2.11,2,0,10.93,3.27,15l6-1.08c6.07,9.86-2.46,3.57,1.91,13.7-4.45,2.07-9.14-7-12.85-15.2,2.37,7.66,1.9,16.21,8.21,17.59.81,7.66-6,1.08-4.66,10.18,3.76,5.57,11.38,12,11.38,19.83l-.86.15c1,9.18,5.25,15,9.43,20.74s8.28,11.22,9,19.65l-2.15-1.17c-.44,6.28,7.24,15.85,8.38,26.54-.22-3.08,2-6.56,4.86-.83,1.66,12.18,7.44,19,7.3,28.32l7.35,6.53c7.28,19.77,27.62,68,48,116.16s40.68,96.44,48.61,116.1l-1.17-1.36c12.56,29.8,30.71,75.62,49.26,121.59s37.48,92.11,51.43,122.6c.79,10.57,6.59,23.63,9.66,33.93-1-6,1.78-4.71,3.33-.31,11.37,30.74,2.74,1.43,15.68,32.05,8,17.44,24.18,60.58,39.68,103.37s30.38,85.22,35.5,101.35c4.87,8,8.68,17.49,12.34,27s7.17,19,11.28,27l-1.35-1.44c4,8.77,14.83,38.73,25.91,69s22.34,61,26.74,71.23l-.7-2.92c8.41,17.66,4.76,16.07,9.43,30.62,2-2.76,9.35,12.32,11.76,18.2L767,36c3.83,8.8,13.59,28.39,19.37,43.11L784.8,79c6,11.89,14,35.31,17.45,44.14,3.52,10.23,7.68,23.33,12.46,37.19s10.16,28.49,15.91,41.83q1.8,9.24,3.73,18.43l1.26,2.47a67,67,0,0,0,6.77,2.12A51.86,51.86,0,0,0,856.55,227c5-.18,9.76-1.54,13.09-5.3s5.3-10,4.62-19.78l1.15.26-2.1-7.26c-1.86-8.92-4.15-12.58-3-12.32l3.11,12c-2.08-8.9.13-2.93,1.59.25-.88-3.71-1.71-7.32-2.17-10.36-.86-1.6-.09,1.42,0,2.86-1.62-4.62-4.38-10.89-5.44-16.82-2.32-9.05,1.57-1.13-1.1-11.71-6.93-27.91-13.54-55.46-20.25-83.06s-13.53-55.24-21-83.3c.28-1.48.65,0,1.34,1.59-5-16.74-8.69-31.87-13.4-47.07a17.59,17.59,0,0,1,.59-7.48c-.32,1.48-6.18-19.71-12-41.45-2.9-10.88-5.78-21.89-7.93-30.28S790.17-146.34,790.18-146.71Z" transform="translate(806.28 1226.72)" fill="#e29b43"/>
    </g>
    <g id="line-18">
      <path mask="url(#mask-lines-18)" d="M782.18,255.41c-1.54-4.38-5.61-10.88-9.4-17.09A89.46,89.46,0,0,0,782.18,255.41Z" transform="translate(806.28 1226.72)" fill="#f6c051"/>
      <path mask="url(#mask-lines-18)" d="M772.72,238.18l-.08-.08.14.22Z" transform="translate(806.28 1226.72)" fill="#f6c051"/>
      <path mask="url(#mask-lines-18)" d="M-163.79-820.45l4,4.45A20.07,20.07,0,0,0-163.79-820.45Z" transform="translate(806.28 1226.72)" fill="#f6c051"/>
      <path mask="url(#mask-lines-18)" d="M586.36-60.57,583-59.51C573.67-74,583.48-66,574.23-79c-3.67-1.18-7.15-6.81-10.33-12.56s-6-11.59-8.63-13.11c.39-.14-3.69-6.8-2.12-7.33-3.55-.37-4.85-6.38-8.08-10.1-1.6-1,0,1.6,0,3.22l-6.91-8.88c-1.64-4.25-.85-6.17,2-2.31-7.52-12.71-29.72-49.29-52.23-86s-45.37-73.51-54.59-86.39c0,5,6.75,12.22,5.42,17.78-6.41-5.7-6-10.87-10-12.54,3.3-6.37-8.77-16.38-7-25.51l-4.2.09-.46-4.82c-22.9-28.89-6-6-22.91-34.12-10.62-15.64-19.8-20.07-23.9-30.08.81,1.34,1.16,6.24-2.3,2.7,2.31-2.71-9.07-9.52-7.56-13.56-3-3.78-11-17.11-12-9.89.47-3.6-6.26-15.85-.09-10.13-2.42-4-4.3-8.25-7-10.46l2.17,5.85c-9.17-12.86-10.74-22.35-19.95-28.37l1.58,6.06c-5.39-7.75-10-14.14-8-20.18l6.49,7.26c-8.59-13.11-13.95-20.88-23.23-30.27l2.42,4c-6.56-5.51-22.57-25.89-38.77-45.93s-32.58-39.74-39.62-44.1l.46,8.39-10.25-8.84c.84,1.32,14.8-2.89,14.38-1-7.93-11.69-32.81-47.7-57.26-83.7s-48.44-72-54.29-83.86c-3.6-10.38,5.24-6.14,5.92-6.49-8.49-9.66-7.23-1.58-12.87-10.93-.91-3,3.47-1.76,5-.77-3.08-3.66-4.12-8.37-6.19-7.32,1.82,6-4.52,7.54-6.34,12l-7.32-12,3.5-1.78c-1.62-2.68-13-.33-19-13-11.5-20.33-26.62-40.49-38.81-60.47,2.2-1.15,6.09,2.08,10,5.33-1.62-2.69-4.77-6.29-4.92-9.74-.41,7.26-7.77-6.46-6.82-1.7-8.82-4.16-14.47-12.16-19.63-20.22s-9.83-16.15-16.88-20.35c-4.14,2.2-41.13,19.09-78.83,36.7s-76,35.85-80.55,39.18c-2.81-3.76-5.59-7.49-5.74-9.15-1.4,2.51,3.42,10.39,7.75,13.29l5.42-2.9c8.82,7.5-1.23,4.16,6,12.44-3.59,3.34-10.87-3.87-16.92-10.48,4.63,6.55,6.82,14.82,13.25,14.19,3.14,7-5.39,2.88-1.29,11.12,5.3,4.14,14.54,7.92,17,15.35l-.78.39c3.75,8.44,9.64,12.69,15.38,16.82s11.34,8.11,14.65,15.9l-2.41-.44c1.52,6.1,11.78,12.83,16.17,22.65-1.16-2.87-.09-6.87,4.37-2.3,5.35,11.07,12.94,15.75,15.7,24.68l9,3.95c13,16.55,47.27,56.09,81.5,95.65s68.49,79.15,82.11,95.39l-1.54-.93c21.16,24.46,52.58,62.43,84.43,100.42s64.11,76,86.79,100.71c4,9.81,13.58,20.43,19.68,29.28-2.77-5.38.23-5,3.07-1.32,20.32,25.72,3.05.52,24.82,25.63,13,14.1,41.72,50.15,69.68,86.06S447-91.15,456.86-77.39c7.09,6.09,13.66,14,20.08,21.86S489.63-39.66,496-33.29l-1.74-1c6.49,7.12,26.08,32.26,46,57.66s40.09,51.08,47.44,59.48l-1.57-2.56c13.46,14.19,9.5,13.81,18.43,26.2,1-3.23,12.7,8.83,16.81,13.68l-.63.16c6.36,7.19,21.69,22.81,31.74,35l-1.51.33c9.39,9.45,24.24,29.24,30.24,36.58,6.5,8.64,14.51,19.82,23.34,31.52s18.47,24,28.05,34.87q4.57,8.22,9.26,16.37l2,2a66.92,66.92,0,0,0,7.1-.08A51.59,51.59,0,0,0,765,274.35c4.68-1.7,8.8-4.48,10.8-9.08s2-11.12-1.71-20.24l1.17-.11L771,238.67c-4.53-7.91-7.84-10.69-6.62-10.81l6.68,10.49c-4.73-7.82-.79-2.82,1.58-.25-2-3.26-3.88-6.44-5.26-9.18-1.31-1.26.35,1.38.93,2.7-3-3.89-7.53-9-10.37-14.31-5-7.89,1.14-1.57-4.67-10.8-15.21-24.41-30-48.56-44.92-72.73S678.41,85.42,662.63,61c-.2-1.49.63-.15,1.77,1.1-10-14.37-18.12-27.63-27.3-40.63a17.76,17.76,0,0,1-1.75-7.3c.15,1.52-12-16.83-24.2-35.71-6.12-9.45-12.26-19-16.9-26.35S586.48-60.21,586.36-60.57Z" transform="translate(806.28 1226.72)" fill="#f6c051"/>
    </g>
    <g id="line-17">
      <path mask="url(#mask-lines-17)" d="M703,324.34c-2.82-3.68-8.7-8.61-14.23-13.34A89.55,89.55,0,0,0,703,324.34Z" transform="translate(806.28 1226.72)" fill="#e29b43"/>
      <path mask="url(#mask-lines-17)" d="M688.7,310.89l-.1-.06.19.17Z" transform="translate(806.28 1226.72)" fill="#e29b43"/>
      <path mask="url(#mask-lines-17)" d="M-529.11-406.54l5.21,3A20.31,20.31,0,0,0-529.11-406.54Z" transform="translate(806.28 1226.72)" fill="#e29b43"/>
      <path mask="url(#mask-lines-17)" d="M419.15,84.34l-2.85,2C402.93,75.52,414.72,80,401.91,70.6c-3.85,0-8.9-4.28-13.69-8.76S378.88,52.68,376,52c.33-.24-5.61-5.32-4.28-6.31-3.49.75-6.58-4.57-10.8-7.11-1.85-.49.51,1.52,1,3l-9.32-6.31c-2.87-3.54-2.71-5.6,1.18-2.82-11.09-9.75-43.51-37.68-76.26-65.65S211.65-89,198.89-98.41c1.59,4.75,10.2,9.53,10.66,15.23-7.86-3.44-9.08-8.48-13.39-8.84,1.17-7.07-13.4-12.86-14.53-22.1l-4,1.38-1.92-4.44c-30.71-20.39-7.61-3.84-32.33-25.36-14.94-11.6-25-13-32-21.23,1.18,1,3,5.58-1.36,3.28,1.36-3.29-11.56-6.25-11.38-10.56-4-2.68-15.78-12.87-14.5-5.68-.66-3.58-10.84-13.14-3.21-9.61-3.54-3.07-6.64-6.52-9.88-7.79l3.87,4.89C62.23-198.63,57.8-207.18,47.18-210l3.38,5.27C43-210.48,36.65-215.13,36.7-221.5l8.41,4.91c-12.22-9.82-19.72-15.55-31.45-21.61l3.54,3c-7.94-3.21-29.47-17.64-51.07-31.69s-43.26-27.74-51.3-29.71l3,7.84-12.48-5.24c1.2,1,13.18-7.32,13.37-5.37-11.15-8.66-45.94-35.23-80.32-61.9s-68.32-53.51-77.55-63c-6.63-8.77,3.08-7.46,3.62-8-11.05-6.57-7.36.73-15.61-6.43-1.79-2.58,2.76-2.74,4.47-2.26-4.06-2.52-6.5-6.69-8.15-5,3.6,5.19-2,8.56-2.33,13.35l-10.66-9.14,2.78-2.76c-2.37-2.06-12.48,3.7-22.05-6.52-17.22-15.78-37.83-30.28-55.6-45.51,1.74-1.77,6.44.09,11.13,2-2.38-2.05-6.49-4.51-7.7-7.74,1.86,7-9.38-3.74-7,.49-9.67-1.23-17.52-7.1-24.91-13.17s-14.34-12.32-22.35-14.13c-3.26,3.36-33.22,30.86-63.63,59.26s-61.17,57.57-64.5,62.15c-3.83-2.7-7.63-5.39-8.29-6.93-.55,2.83,6.46,8.83,11.48,10.25l4.26-4.43c10.71,4.41.11,4.33,9.6,10-2.39,4.28-11.53-.32-19.33-4.74,6.42,4.8,11.07,12,17,9.41,5.16,5.71-4.23,4.4,2.21,11,6.32,2.3,16.28,3,20.87,9.35l-.61.62c6.17,6.86,13.09,9.09,19.82,11.24s13.3,4.21,18.85,10.6l-2.43.32c3.33,5.33,15.17,8.56,22.38,16.54-2-2.36-2.22-6.5,3.45-3.53,8.5,8.88,17.17,11,22.54,18.62l9.79,1c17.51,11.72,62.28,38.74,107.07,65.79s89.59,54.1,107.57,65.35l-1.75-.41c27.68,16.72,69.29,43.12,111.33,69.41s84.46,52.49,113.66,69c6.85,8.09,19.22,15.24,27.76,21.76-4.29-4.25-1.33-4.85,2.51-2.19,27.27,18.17,3.06-.46,31.53,16.7,16.75,9.38,55.17,34.8,92.86,60.31s74.67,51.08,88.29,61.12c8.63,3.6,17.3,9,25.85,14.59s17,11.17,25,15.25l-2-.38c8.37,4.77,34.77,22.63,61.55,40.64s53.9,36.19,63.5,41.9l-2.29-1.94c17.19,9.33,13.3,10.19,25.63,19.22,0-3.39,14.8,4.47,20.21,7.82l-.55.34c8.27,4.88,27.68,15,41,23.5l-1.32.78c11.84,6.08,32.09,20.32,40.06,25.44,8.85,6.21,19.92,14.37,31.94,22.77s25,17.07,37.45,24.49q6.9,6.41,13.86,12.71l2.46,1.27a70,70,0,0,0,6.73-2.28,51.4,51.4,0,0,0,12.57-6.81c3.93-3.06,7-7,7.47-12s-1.56-11.18-7.89-18.72l1.09-.46-6-4.64c-6.75-6.13-10.75-7.75-9.63-8.24l9.59,7.92c-6.91-6-1.62-2.44,1.43-.73-2.89-2.49-5.69-4.92-7.84-7.1-1.64-.8.76,1.2,1.72,2.28-4-2.79-10-6.24-14.29-10.41-7.19-6,.6-1.84-7.77-8.83-22-18.51-43.56-36.91-65.21-55.29s-43.41-36.74-66-55c-.64-1.35.56-.34,2,.5-13.91-10.59-25.77-20.68-38.52-30.2a17.63,17.63,0,0,1-3.91-6.41c.61,1.4-16.59-12.3-34.07-26.48-8.73-7.09-17.53-14.31-24.21-19.83S419.36,84.65,419.15,84.34Z" transform="translate(806.28 1226.72)" fill="#e29b43"/>
    </g>
    <g id="line-16">
      <path mask="url(#mask-lines-16)" d="M649,414.37c-3.81-2.64-10.93-5.51-17.65-8.3A89.76,89.76,0,0,0,649,414.37Z" transform="translate(806.28 1226.72)" fill="#f6c051"/>
      <path mask="url(#mask-lines-16)" d="M631.26,406l-.11,0,.23.1Z" transform="translate(806.28 1226.72)" fill="#f6c051"/>
      <path mask="url(#mask-lines-16)" d="M-748.65,100l5.88,1.22A20.67,20.67,0,0,0-748.65,100Z" transform="translate(806.28 1226.72)" fill="#f6c051"/>
      <path mask="url(#mask-lines-16)" d="M304.89,273.83l-2.08,2.82c-16.07-6.2-3.46-5.54-18.55-10.56-3.67,1.2-9.79-1.32-15.74-4.1s-11.71-5.82-14.7-5.53c.25-.34-7-3.33-6-4.69-3.09,1.79-7.68-2.31-12.48-3.42-1.9.1,1,1.28,1.94,2.58l-10.82-3.13c-3.82-2.47-4.31-4.49.25-3-13.56-5.86-53-22.4-92.81-38.88S54,173.08,39,168.09c3,4,12.64,5.92,14.83,11.19-8.53-.84-11.25-5.26-15.46-4.27-1.07-7.09-16.72-8.09-20.65-16.53L14.32,161l-3.19-3.63c-35.51-9.91-8.43-1.31-38.59-14.14-17.79-6.41-27.82-4.6-37-10.29,1.45.61,4.61,4.37-.27,3.54.28-3.55-12.93-2.37-14.09-6.52-4.61-1.33-19-7.37-15.54-.93-1.74-3.2-14.37-9.15-6-8.15-4.32-1.82-8.32-4.15-11.8-4.35L-107,120c-15-5-21.82-11.77-32.81-11.23l4.84,4c-8.92-3.09-16.42-5.55-18.35-11.61l9.52,2.06c-14.66-5.56-23.57-8.69-36.59-10.83l4.31,1.81c-8.55-.6-33.48-7.68-58.36-14.36s-49.72-13-58-12.4l5.31,6.52-13.49-1.13c1.45.57,10.27-11,11.06-9.24-13.28-4.79-54.58-19.31-95.52-34S-466.6-.25-478.3-6.41c-9-6.28.62-8,1-8.72-12.54-2.83-6.77,3-16.83-1.29-2.51-1.9,1.77-3.46,3.55-3.53-4.65-1.14-8.25-4.35-9.31-2.28,5,3.83.77,8.75,1.91,13.42l-13-5.4,1.79-3.48c-2.89-1.23-10.72,7.37-23,.61-21.25-9.68-45.34-17.11-66.94-26.11,1.1-2.22,6.15-1.89,11.19-1.54-2.89-1.21-7.55-2.28-9.71-5,3.94,6.12-10.08-.66-6.51,2.63-9.58,1.82-18.86-1.33-27.76-4.82s-17.45-7.29-25.63-6.54c-2.06,4.21-22.05,39.62-42.2,76s-40.39,73.65-42.14,79c-4.47-1.39-8.92-2.77-10-4,.34,2.86,8.87,6.4,14.08,6.2l2.69-5.54c11.54.89,1.44,4.09,12.21,6.51-1,4.82-11.08,3.26-19.86,1.46,7.59,2.59,14.23,8,19.06,3.71,6.67,3.84-2.67,5.49,5.49,9.75,6.72.23,16.42-2.14,22.74,2.44l-.39.78c8,4.62,15.26,4.6,22.33,4.56s13.94-.1,21.19,4.26l-2.21,1.06c4.82,4,17.08,3.45,26.4,8.82-2.63-1.64-4.11-5.5,2.19-4.43,10.83,5.82,19.72,5.14,27.2,10.74l9.6-2.1c20.28,5.73,71.21,17.6,122.16,29.48s101.93,23.77,122.5,28.91l-1.79.16C-314.81,206.71-267.07,219-219,231s96.55,23.82,129.41,30.46c9,5.57,23,8.55,33.13,12.12-5.4-2.72-2.77-4.2,1.7-2.87,31.56,8.86,2.77-1.38,35.15,6.15,18.84,3.74,63.23,16,107,28.66s86.8,25.51,102.86,30.85c9.32.75,19.25,3.26,29.09,5.88s19.61,5.38,28.52,6.77l-2,.24c9.43,1.95,40.06,10.78,71.09,19.63s62.45,17.76,73.34,20.23L387.53,388c19.23,3.57,15.8,5.58,30.31,10.36-1.06-3.22,15.46-.32,21.64,1.19l-.42.5c9.37,2.08,31,5.7,46.26,9.67l-1,1.15c13.14,2.13,36.8,9.41,46,11.82,10.34,3.17,23.39,7.51,37.41,11.79s29,8.52,43.19,11.71q8.53,4,17.11,7.81l2.74.44a68.09,68.09,0,0,0,5.69-4.23,51.41,51.41,0,0,0,9.85-10.37c2.79-4.13,4.49-8.8,3.4-13.7s-4.94-10.14-13.28-15.36l.89-.78-7.11-2.56c-8.31-3.74-12.62-4-11.71-4.86L630,407.11c-8.42-3.55-2.3-1.83,1.14-1.14-3.52-1.47-6.93-2.92-9.66-4.33-1.8-.25,1.1.9,2.35,1.64-4.69-1.41-11.39-2.87-16.81-5.49-8.69-3.44,0-1.94-10.12-6-26.65-10.8-52.83-21.64-79.1-32.44s-52.65-21.52-79.74-32c-1-1.09.42-.49,2.07-.15-16.49-5.77-30.89-11.7-46-16.82a17.64,17.64,0,0,1-5.7-4.88c1,1.13-19.58-6.58-40.58-14.67-10.5-4-21.1-8.19-29.15-11.38S305.19,274.06,304.89,273.83Z" transform="translate(806.28 1226.72)" fill="#f6c051"/>
    </g>
    <g id="line-15">
      <path mask="url(#mask-lines-15)" d="M625.51,516.67c-4.44-1.33-12.1-1.86-19.35-2.44A89.37,89.37,0,0,0,625.51,516.67Z" transform="translate(806.28 1226.72)" fill="#e29b43"/>
      <path mask="url(#mask-lines-15)" d="M606,514.2h-.12l.26,0Z" transform="translate(806.28 1226.72)" fill="#e29b43"/>
      <path mask="url(#mask-lines-15)" d="M-800.9,649.6l6-.65A20.31,20.31,0,0,0-800.9,649.6Z" transform="translate(806.28 1226.72)" fill="#e29b43"/>
      <path mask="url(#mask-lines-15)" d="M254.78,489.36l-1.1,3.32c-17.2-.93-5-4.2-20.92-4.31-3.11,2.27-9.71,1.77-16.23,1s-12.93-1.92-15.68-.73c.12-.4-7.67-1-7.17-2.59-2.39,2.65-8,.17-12.93.59-1.78.69,1.31.93,2.64,1.86l-11.25.37c-4.4-1.17-5.48-2.94-.7-3-14.7-1.38-57.35-4.92-100.28-8.3S-15,471.07-30.82,471c4.07,2.91,13.85,1.72,17.57,6.06-8.38,1.84-12.33-1.52-16,.72-3.21-6.41-18.4-2.53-24.74-9.34l-2.4,3.45-4.17-2.46c-36.83,1.55-8.41,1.36-41.06-1.52-18.9-.6-27.88,4.22-38.39,1.65,1.56.14,5.73,2.74.83,3.45-.83-3.46-13,1.75-15.41-1.85-4.8.17-20.33-1.13-15.07,3.92-2.64-2.5-16.5-4.25-8.25-5.88-4.68-.4-9.2-1.37-12.57-.49l6,1.68c-15.79-.14-24.39-4.45-34.68-.54l5.84,2.28c-9.44-.18-17.34-.2-21-5.37l9.69-1c-15.66-.76-25.1-1-38.15,1l4.66.39c-8.31,2.07-34.21,3.05-59.94,4.38s-51.31,3-59,6.13l7.06,4.55-13.18,3.1c1.56.1,6.36-13.67,7.67-12.2-14.12-.46-57.88-1.5-101.37-2.87s-86.72-3.14-99.76-5.38c-10.52-3.18-1.89-7.84-1.77-8.6-12.8,1.19-5.52,4.92-16.41,4-3-1,.62-3.84,2.29-4.45-4.77.35-9.19-1.59-9.56.7,6,2.09,3.44,8.09,6,12.18l-14-1.13.62-3.87c-3.12-.27-7.92,10.33-21.67,7.69-23.2-2.64-48.4-2.26-71.73-4.14.37-2.45,5.26-3.7,10.17-4.93-3.13-.26-7.89.16-10.77-1.74,5.63,4.6-9.79,2.49-5.39,4.52-8.54,4.69-18.34,4.56-27.89,4s-18.85-1.54-26.39,1.7c-.66,4.64-8.73,44.5-16.64,85.35s-15.66,82.53-15.66,88.19c-4.68.06-9.34.12-10.77-.73,1.21,2.61,10.42,3.34,15.31,1.54l.84-6.09c11.26-2.73,2.64,3.44,13.63,2.42.58,4.87-9.53,6.52-18.44,7.52,8,.11,16,3.2,19.27-2.37,7.54,1.59-.83,6,8.24,7.58,6.47-1.86,15-7.11,22.38-4.7l-.13.86c9,1.93,15.94-.34,22.65-2.56s13.22-4.41,21.47-2.5l-1.78,1.68c5.83,2.36,17.31-2,27.83.24-3-.75-5.61-4,.72-4.89,12.09,2.19,20.34-1.21,29.18,1.81l8.49-5c21-.82,73.16-5.27,125.29-9.71s104.29-8.89,125.44-10.36l-1.66.69c32.22-2.74,81.41-5.84,130.87-9.28s99.18-7.18,132.48-11c10.3,2.52,24.51,1,35.26,1.29-6-.91-3.93-3.14.74-3.25,32.74-1.33,2.21-2.17,35.33-5,19.06-2.26,65.08-4.27,110.57-5.79s90.43-2.56,107.36-2.45c9.09-2.16,19.31-2.84,29.48-3.39s20.31-.94,29.21-2.37l-1.79.84c9.56-1.07,41.42-2.14,73.67-3.3s64.88-2.41,76-3.43l-3-.23c19.39-2.55,16.74.43,32,.49-2-2.74,14.61-5.08,20.95-5.56l-.24.61c9.55-.92,31.2-4.15,47-5.1l-.62,1.41c13.17-2,37.91-2.42,47.37-3,10.82-.18,24.56-.09,39.22-.35s30.24-.87,44.7-2.21q9.35,1.14,18.69,2.15l2.73-.43a69.52,69.52,0,0,0,4.11-5.79,51.65,51.65,0,0,0,6.16-12.9c1.38-4.79,1.56-9.76-1-14.08s-7.84-8.12-17.39-10.51l.61-1-7.55-.25c-9.06-1-13.26.06-12.64-1l12.42.76c-9.11-.77-2.75-1,.72-1.43-3.8-.31-7.49-.64-10.52-1.14-1.79.32,1.32.53,2.74.84-4.9.11-11.72.79-17.68,0-9.33-.6-.6-1.85-11.48-2.58-28.68-2-56.93-4.26-85.25-6.4S427,500.7,398,499.14c-1.31-.72.26-.6,1.93-.78-17.47-.4-33-1.58-48.91-1.8a17.45,17.45,0,0,1-6.93-2.88c1.31.77-20.65-.21-43.13-1.41-11.23-.6-22.6-1.26-31.24-1.81S255.14,489.48,254.78,489.36Z" transform="translate(806.28 1226.72)" fill="#e29b43"/>
    </g>
    <g id="line-14">
      <path mask="url(#mask-lines-14)" d="M634.75,621.23c-4.63.11-12.08,2-19.16,3.66A88.86,88.86,0,0,0,634.75,621.23Z" transform="translate(806.28 1226.72)" fill="#f6c051"/>
      <path mask="url(#mask-lines-14)" d="M615.45,624.91l-.11,0,.25-.06Z" transform="translate(806.28 1226.72)" fill="#f6c051"/>
      <path mask="url(#mask-lines-14)" d="M-680.77,1188.44l5.47-2.46A20.72,20.72,0,0,0-680.77,1188.44Z" transform="translate(806.28 1226.72)" fill="#f6c051"/>
      <path mask="url(#mask-lines-14)" d="M273.73,709.82l0,3.5c-16.65,4.43-6.07-2.45-21.23,2.36-2.25,3.12-8.69,4.69-15.13,5.94s-12.9,2.17-15.15,4.16c0-.42-7.6,1.4-7.62-.26-1.45,3.27-7.56,2.64-12.1,4.57-1.49,1.2,1.52.47,3.08.95L195,734.86c-4.55.25-6.12-1.1-1.58-2.6-14.41,3.23-56.06,13-97.93,23.1s-83.94,20.43-99,25.23c4.77,1.5,13.71-2.65,18.58.33-7.39,4.34-12.2,2.36-15,5.64-5-5.11-18.29,3.28-26.43-1.24l-1.21,4-4.72-1.06c-34.55,12.85-7.58,3.9-39.53,11.25-18.16,5.26-25.2,12.63-36,13.43,1.53-.35,6.3.83,1.86,3-1.86-3-11.85,5.68-15.23,3-4.51,1.64-19.69,5.2-13.12,8.39-3.29-1.57-17,1-9.66-3-4.57,1.06-9.18,1.53-12.11,3.41l6.23-.25c-15.06,4.74-24.58,3.3-33.15,10.2l6.25.37c-9,2.74-16.54,5.16-21.67,1.39l8.92-3.93c-15.13,4.12-24.18,6.82-36,12.74l4.55-1.06c-7.27,4.53-31.6,13.47-55.66,22.68s-47.87,18.7-54.19,24.05l8.12,2.16-11.57,7c1.51-.39,1.82-15,3.52-14-13.56,3.93-55.51,16.46-97.3,28.59s-83.44,23.82-96.53,25.72c-11,.22-4.22-6.88-4.34-7.63-11.81,5.08-3.73,6.38-14.38,8.85-3.14-.06-.6-3.84.8-4.94-4.43,1.8-9.23,1.33-8.87,3.62,6.32.14,5.77,6.63,9.44,9.74l-13.67,3.25-.6-3.87c-3,.71-4.34,12.27-18.23,14-22.89,4.65-46.73,12.81-69.5,18.22-.41-2.44,3.86-5.14,8.15-7.82-3.06.71-7.46,2.59-10.79,1.67,6.78,2.64-8.54,5.39-3.72,6-6.68,7.1-16,10-25.3,12.42s-18.4,4.36-24.57,9.77c.81,4.62,5.45,45,10.55,86.31s10.61,83.33,12.36,88.72c-4.43,1.5-8.84,3-10.47,2.63,2,2.11,10.94,0,15-3.27l-1.08-6c9.87-6.07,3.57,2.46,13.71-1.91,2.06,4.45-7,9.14-15.21,12.85,7.66-2.37,16.21-1.9,17.6-8.21,7.66-.81,1.07,6,10.18,4.66,5.57-3.76,12-11.38,19.83-11.38l.14.86c9.18-1,15-5.25,20.74-9.43s11.22-8.28,19.66-9l-1.17,2.15c6.27.44,15.84-7.24,26.53-8.38-3.08.22-6.55-2-.83-4.86,12.18-1.66,19-7.44,28.32-7.3l6.54-7.35c19.77-7.28,67.95-27.62,116.16-48s96.43-40.68,116.09-48.61l-1.36,1.17c29.8-12.56,75.62-30.71,121.59-49.26s92.11-37.48,122.6-51.43c10.58-.79,23.63-6.59,33.93-9.66-6,1-4.71-1.78-.3-3.33C11.68,907.28-17.62,915.91,13,903c17.43-8,60.58-24.18,103.37-39.68s85.21-30.38,101.34-35.5c8-4.87,17.49-8.68,27-12.34s19-7.17,27-11.28l-1.45,1.35c8.77-4,38.74-14.83,69.05-25.91s61-22.34,71.22-26.74l-2.91.7c17.65-8.41,16.06-4.76,30.61-9.43-2.76-2,12.32-9.35,18.2-11.76l0,.66c8.81-3.83,28.4-13.59,43.11-19.37l-.15,1.53c11.89-6,35.3-14,44.13-17.45,10.23-3.52,23.34-7.68,37.2-12.46s28.48-10.16,41.82-15.91q9.24-1.8,18.44-3.73l2.47-1.26a68.81,68.81,0,0,0,2.11-6.77,51.48,51.48,0,0,0,1.88-14.17c-.17-5-1.54-9.76-5.3-13.09s-10-5.3-19.78-4.62l.27-1.15-7.26,2.1c-8.93,1.86-12.59,4.15-12.33,3l12-3.11c-8.89,2.08-2.93-.13.25-1.59-3.71.88-7.32,1.71-10.35,2.17-1.61.86,1.41.09,2.86,0-4.63,1.62-10.9,4.38-16.82,5.44-9.06,2.32-1.14-1.57-11.71,1.1-27.92,6.93-55.47,13.54-83.06,20.25S441,667.39,413,674.87c-1.47-.28.06-.65,1.59-1.34-16.74,5-31.87,8.69-47.07,13.4a17.59,17.59,0,0,1-7.48-.59c1.49.32-19.71,6.18-41.45,12-10.87,2.9-21.88,5.78-30.27,7.93S274.11,709.83,273.73,709.82Z" transform="translate(806.28 1226.72)" fill="#f6c051"/>
    </g>
    <g id="line-13">
      <path mask="url(#mask-lines-13)" d="M675.85,717.82c-4.37,1.54-10.88,5.61-17.09,9.4A89.17,89.17,0,0,0,675.85,717.82Z" transform="translate(806.28 1226.72)" fill="#e29b43"/>
      <path mask="url(#mask-lines-13)" d="M658.63,727.28l-.09.08.22-.14Z" transform="translate(806.28 1226.72)" fill="#e29b43"/>
      <path mask="url(#mask-lines-13)" d="M-400,1663.79l4.45-4A20.29,20.29,0,0,0-400,1663.79Z" transform="translate(806.28 1226.72)" fill="#e29b43"/>
      <path mask="url(#mask-lines-13)" d="M359.88,913.64l1.05,3.33c-14.46,9.36-6.52-.45-19.45,8.8-1.18,3.67-6.82,7.15-12.56,10.33s-11.6,6-13.12,8.63c-.13-.39-6.79,3.69-7.33,2.12-.36,3.55-6.38,4.85-10.1,8.08-1,1.6,1.6,0,3.23,0l-8.89,6.91c-4.25,1.64-6.16.85-2.31-2-12.71,7.52-49.29,29.72-86,52.23s-73.52,45.37-86.39,54.59c5,0,12.21-6.75,17.77-5.42-5.69,6.41-10.87,6-12.54,10-6.37-3.3-16.38,8.77-25.51,7l.09,4.2-4.82.45c-28.88,22.91-6,6.05-34.11,22.92-15.64,10.62-20.07,19.8-30.09,23.9,1.34-.81,6.24-1.16,2.7,2.3-2.71-2.31-9.51,9.07-13.56,7.56-3.78,3-17.11,11-9.88,12-3.61-.47-15.85,6.26-10.13.09-4,2.42-8.26,4.3-10.46,7l5.84-2.17c-12.85,9.17-22.35,10.74-28.37,20l6.06-1.58c-7.74,5.39-14.14,10-20.18,8l7.27-6.49c-13.11,8.59-20.89,14-30.28,23.23l4-2.42c-5.51,6.56-25.88,22.57-45.92,38.77s-39.75,32.58-44.1,39.62l8.38-.46-8.83,10.25c1.31-.84-2.9-14.8-1-14.38-11.68,7.93-47.7,32.81-83.7,57.26s-72,48.44-83.86,54.29c-10.38,3.6-6.14-5.24-6.48-5.92-9.66,8.49-1.58,7.23-10.94,12.87-3,.91-1.76-3.47-.77-5-3.65,3.08-8.37,4.12-7.31,6.19,6.05-1.82,7.53,4.52,12,6.34l-12,7.32-1.77-3.5c-2.69,1.62-.33,13-13,19-20.33,11.5-40.49,26.62-60.47,38.81-1.15-2.2,2.08-6.09,5.34-10-2.69,1.62-6.3,4.77-9.74,4.92,7.26.41-6.46,7.77-1.71,6.82-4.15,8.82-12.16,14.47-20.21,19.63s-16.16,9.83-20.35,16.88c2.19,4.14,19.09,41.13,36.7,78.83s35.84,76,39.17,80.55c-3.75,2.81-7.49,5.59-9.15,5.74,2.52,1.4,10.39-3.42,13.29-7.75l-2.9-5.42c7.51-8.82,4.16,1.23,12.45-6.05,3.33,3.59-3.88,10.87-10.49,16.92,6.55-4.63,14.83-6.82,14.2-13.25,7-3.14,2.88,5.39,11.12,1.29,4.13-5.3,7.92-14.54,15.34-17l.4.78c8.44-3.75,12.69-9.64,16.81-15.38s8.11-11.34,15.91-14.65l-.45,2.41c6.1-1.52,12.84-11.78,22.65-16.17-2.86,1.16-6.86.09-2.29-4.37,11.07-5.35,15.75-12.94,24.67-15.7l3.95-9c16.55-13,56.09-47.27,95.66-81.5s79.14-68.49,95.39-82.11l-.93,1.54c24.45-21.16,62.42-52.58,100.41-84.43s76-64.11,100.71-86.79c9.81-4,20.43-13.58,29.28-19.68-5.37,2.77-5-.23-1.31-3.07,25.71-20.32.51-3,25.63-24.82,14.1-13,50.14-41.72,86-69.68s71.65-55.22,85.41-65.08c6.09-7.09,14-13.66,21.87-20.08s15.87-12.69,22.23-19.09l-1,1.74c7.12-6.49,32.27-26.08,57.67-46s51.07-40.09,59.47-47.44l-2.55,1.57c14.19-13.46,13.8-9.5,26.2-18.43-3.24-1,8.83-12.7,13.68-16.81l.16.63c7.19-6.36,22.8-21.69,35-31.74l.33,1.51c9.45-9.39,29.24-24.24,36.58-30.24,8.65-6.5,19.82-14.51,31.53-23.34s24-18.47,34.86-28.05q8.22-4.57,16.38-9.26l2-2a70.37,70.37,0,0,0-.08-7.1,51.63,51.63,0,0,0-2.6-14.06c-1.7-4.68-4.47-8.8-9.08-10.8s-11.11-2-20.24,1.71l-.1-1.17L659.11,729c-7.91,4.53-10.69,7.84-10.81,6.62l10.5-6.68c-7.82,4.73-2.83.79-.26-1.58-3.25,2-6.43,3.88-9.17,5.26-1.27,1.31,1.37-.35,2.7-.93-3.9,3-9,7.53-14.32,10.37-7.89,5-1.56-1.14-10.79,4.67-24.41,15.21-48.57,30-72.74,44.92s-48.36,29.94-72.74,45.72c-1.48.2-.14-.63,1.1-1.77-14.37,10-27.62,18.12-40.62,27.3a17.79,17.79,0,0,1-7.3,1.75c1.51-.15-16.83,12-35.72,24.2-9.44,6.12-19,12.26-26.34,16.9S360.24,913.52,359.88,913.64Z" transform="translate(806.28 1226.72)" fill="#e29b43"/>
    </g>
    <g id="line-12">
      <path mask="url(#mask-lines-12)" d="M744.79,797c-3.69,2.82-8.62,8.7-13.35,14.23A90,90,0,0,0,744.79,797Z" transform="translate(806.28 1226.72)" fill="#f6c051"/>
      <path mask="url(#mask-lines-12)" d="M731.33,811.3l-.06.1.17-.19Z" transform="translate(806.28 1226.72)" fill="#f6c051"/>
      <path mask="url(#mask-lines-12)" d="M13.91,2029.11l3-5.21A20.58,20.58,0,0,0,13.91,2029.11Z" transform="translate(806.28 1226.72)" fill="#f6c051"/>
      <path mask="url(#mask-lines-12)" d="M504.79,1080.85l2,2.85c-10.87,13.37-6.35,1.58-15.79,14.39,0,3.85-4.27,8.9-8.76,13.69s-9.15,9.34-9.8,12.27c-.25-.33-5.32,5.61-6.32,4.28.75,3.49-4.56,6.58-7.11,10.8-.49,1.85,1.52-.51,3.06-1l-6.32,9.32c-3.53,2.87-5.6,2.71-2.81-1.18-9.76,11.09-37.69,43.51-65.65,76.26s-55.9,65.86-65.29,78.62c4.74-1.59,9.53-10.2,15.22-10.66-3.43,7.86-8.48,9.08-8.83,13.39-7.08-1.17-12.87,13.4-22.1,14.53l1.38,4-4.44,1.92c-20.4,30.71-3.85,7.61-25.37,32.33-11.59,14.94-13,25-21.23,32,1-1.18,5.58-3,3.29,1.35-3.29-1.35-6.25,11.57-10.56,11.39-2.69,4-12.87,15.78-5.69,14.5-3.58.66-13.14,10.84-9.61,3.21-3.07,3.54-6.52,6.64-7.78,9.88l4.89-3.87c-9.4,12.69-17.94,17.12-20.82,27.74l5.27-3.38c-5.7,7.53-10.35,13.91-16.71,13.86l4.9-8.41c-9.81,12.22-15.55,19.72-21.61,31.45l3-3.54c-3.21,7.94-17.64,29.47-31.69,51.07s-27.73,43.26-29.7,51.3l7.83-3-5.23,12.48c1-1.2-7.33-13.18-5.37-13.37-8.66,11.15-35.23,45.94-61.91,80.32s-53.51,68.32-63,77.55c-8.76,6.63-7.46-3.08-8-3.62-6.57,11,.73,7.36-6.42,15.61-2.58,1.79-2.75-2.76-2.26-4.47-2.53,4.06-6.69,6.5-5,8.15,5.19-3.6,8.56,2,13.35,2.33l-9.13,10.66L-24,1765c-2.05,2.37,3.71,12.48-6.51,22-15.78,17.22-30.28,37.83-45.52,55.6-1.77-1.74.1-6.44,2-11.13-2,2.38-4.5,6.49-7.74,7.7,7-1.86-3.74,9.38.49,7-1.23,9.67-7.09,17.52-13.16,24.91s-12.33,14.34-14.14,22.35c3.37,3.26,30.87,33.22,59.27,63.63s57.56,61.17,62.15,64.5c-2.71,3.83-5.4,7.63-6.93,8.29,2.82.55,8.82-6.46,10.24-11.48l-4.43-4.26c4.41-10.71,4.33-.11,10-9.6,4.28,2.39-.33,11.53-4.75,19.33,4.8-6.42,12-11.07,9.41-17,5.72-5.16,4.4,4.23,11-2.21,2.3-6.32,3-16.28,9.36-20.87l.61.61c6.87-6.17,9.09-13.09,11.24-19.82s4.21-13.3,10.6-18.85l.32,2.43C74.73,1944.88,78,1933,86,1925.83c-2.37,2-6.5,2.22-3.54-3.45,8.88-8.5,11-17.17,18.62-22.54l1-9.79c11.72-17.51,38.74-62.28,65.79-107.07s54.11-89.59,65.35-107.57l-.41,1.75c16.72-27.68,43.13-69.29,69.41-111.33s52.49-84.46,69-113.66c8.09-6.85,15.24-19.22,21.77-27.76-4.25,4.29-4.85,1.33-2.2-2.51,18.18-27.27-.45-3.06,16.71-31.53,9.38-16.75,34.8-55.17,60.31-92.86s51.08-74.67,61.12-88.29c3.59-8.63,9.05-17.3,14.59-25.85s11.17-17,15.25-25l-.38,2c4.76-8.37,22.62-34.77,40.63-61.55s36.19-53.9,41.91-63.5l-1.95,2.29c9.34-17.19,10.19-13.3,19.22-25.63-3.39,0,4.48-14.8,7.82-20.21l.35.55c4.87-8.27,15-27.68,23.49-41l.78,1.32c6.09-11.84,20.32-32.09,25.44-40.06,6.22-8.85,14.37-19.92,22.77-31.94s17.07-25,24.49-37.45q6.4-6.9,12.72-13.86l1.26-2.46a68,68,0,0,0-2.27-6.73,51.4,51.4,0,0,0-6.81-12.57c-3.07-3.93-7-7-12-7.47s-11.17,1.56-18.72,7.89l-.46-1.09-4.64,6c-6.12,6.75-7.74,10.75-8.23,9.63l7.91-9.59c-6,6.91-2.44,1.62-.73-1.43-2.48,2.89-4.91,5.69-7.1,7.84-.79,1.64,1.2-.76,2.28-1.72-2.79,4-6.24,10-10.41,14.29-6,7.19-1.84-.6-8.82,7.77-18.52,22-36.91,43.56-55.3,65.21s-36.73,43.41-55,66c-1.36.64-.34-.56.49-2-10.58,13.91-20.67,25.77-30.2,38.52a17.71,17.71,0,0,1-6.4,3.91c1.39-.61-12.31,16.59-26.49,34.07-7.09,8.73-14.31,17.53-19.83,24.21S505.1,1080.64,504.79,1080.85Z" transform="translate(806.28 1226.72)" fill="#f6c051"/>
    </g>
    <g id="line-11">
      <path mask="url(#mask-lines-11)" d="M834.81,851c-2.63,3.81-5.5,10.93-8.3,17.65A89.19,89.19,0,0,0,834.81,851Z" transform="translate(806.28 1226.72)" fill="#e29b43"/>
      <path mask="url(#mask-lines-11)" d="M826.44,868.74l0,.11.1-.23Z" transform="translate(806.28 1226.72)" fill="#e29b43"/>
      <path mask="url(#mask-lines-11)" d="M520.45,2248.65c.37-1.79.8-3.82,1.23-5.88A20.35,20.35,0,0,0,520.45,2248.65Z" transform="translate(806.28 1226.72)" fill="#e29b43"/>
      <path mask="url(#mask-lines-11)" d="M694.28,1195.11l2.82,2.08c-6.2,16.07-5.55,3.46-10.57,18.55,1.2,3.67-1.31,9.79-4.09,15.74s-5.83,11.71-5.54,14.7c-.34-.25-3.33,7-4.68,6,1.79,3.09-2.31,7.68-3.43,12.48.1,1.9,1.29-1,2.58-1.94l-3.12,10.82c-2.47,3.82-4.49,4.31-3-.25-5.85,13.56-22.4,53-38.87,92.81s-32.81,79.91-37.8,94.94c4-3,5.91-12.64,11.18-14.83-.83,8.53-5.25,11.25-4.26,15.46-7.1,1.07-8.1,16.72-16.53,20.65l2.54,3.35-3.63,3.19c-9.91,35.51-1.3,8.43-14.13,38.59-6.41,17.79-4.6,27.82-10.29,37,.61-1.45,4.37-4.61,3.54.27-3.56-.28-2.37,12.93-6.53,14.09-1.32,4.61-7.36,19-.93,15.54-3.2,1.74-9.14,14.37-8.14,6-1.83,4.32-4.15,8.32-4.35,11.8l3.45-5.19c-5,15-11.77,21.82-11.22,32.81l4-4.84c-3.09,8.92-5.54,16.42-11.61,18.35l2.07-9.52c-5.56,14.66-8.7,23.57-10.84,36.59l1.81-4.31c-.6,8.55-7.67,33.48-14.36,58.36s-13,49.72-12.39,58l6.51-5.31-1.12,13.49c.57-1.45-11-10.27-9.24-11.06-4.79,13.28-19.31,54.58-34.06,95.52S420.19,1966.6,414,1978.3c-6.28,9-8.05-.62-8.73-1-2.83,12.54,3,6.77-1.29,16.83-1.89,2.51-3.46-1.77-3.52-3.55-1.15,4.65-4.36,8.25-2.29,9.31,3.83-5,8.76-.77,13.42-1.91l-5.39,13-3.49-1.79c-1.22,2.89,7.38,10.72.62,23-9.69,21.25-17.11,45.34-26.11,66.94-2.22-1.1-1.9-6.15-1.54-11.19-1.22,2.89-2.29,7.55-5,9.71,6.11-3.94-.67,10.08,2.62,6.52,1.83,9.57-1.33,18.85-4.82,27.75s-7.29,17.45-6.53,25.63c4.2,2.06,39.62,22,76,42.2s73.65,40.39,79,42.14c-1.39,4.47-2.77,8.92-4,10,2.86-.34,6.4-8.87,6.2-14.08l-5.53-2.69c.88-11.54,4.08-1.44,6.51-12.21,4.81,1,3.25,11.08,1.46,19.86,2.58-7.59,8-14.23,3.7-19.06,3.84-6.67,5.5,2.67,9.75-5.49.24-6.72-2.14-16.42,2.45-22.74l.78.39c4.62-8,4.6-15.26,4.56-22.33s-.11-13.94,4.26-21.19l1.05,2.21c4-4.82,3.46-17.08,8.82-26.4-1.63,2.63-5.5,4.11-4.43-2.19,5.82-10.83,5.14-19.72,10.74-27.2l-2.09-9.6C567,2068.89,578.86,2018,590.75,1967s23.77-101.93,28.91-122.5l.15,1.79c7.35-31.49,19.6-79.23,31.61-127.33s23.82-96.55,30.46-129.41c5.58-9,8.55-23,12.12-33.13-2.72,5.4-4.2,2.77-2.86-1.7,8.86-31.56-1.38-2.78,6.14-35.15,3.75-18.84,16.05-63.23,28.67-106.95s25.5-86.8,30.84-102.86c.76-9.32,3.26-19.25,5.89-29.09s5.38-19.61,6.77-28.52l.24,2c1.95-9.43,10.77-40.06,19.63-71.09s17.75-62.45,20.23-73.34l-1.15,2.77c3.57-19.23,5.59-15.8,10.37-30.31-3.23,1.06-.33-15.46,1.18-21.64l.51.42c2.07-9.37,5.69-31,9.67-46.26l1.15,1c2.13-13.14,9.41-36.8,11.82-46,3.17-10.34,7.5-23.39,11.78-37.41s8.52-29,11.72-43.19q4-8.53,7.81-17.11l.44-2.74a69.86,69.86,0,0,0-4.24-5.69,51.61,51.61,0,0,0-10.36-9.85c-4.13-2.79-8.8-4.49-13.7-3.4s-10.15,4.94-15.37,13.28l-.77-.89-2.57,7.11c-3.74,8.31-4,12.62-4.85,11.71L827.55,870c-3.55,8.42-1.82,2.3-1.14-1.14-1.46,3.52-2.92,6.93-4.33,9.66-.25,1.8.91-1.1,1.64-2.35-1.41,4.69-2.86,11.39-5.48,16.81-3.45,8.69-1.94,0-6,10.12-10.81,26.65-21.65,52.83-32.44,79.1s-21.53,52.65-32,79.74c-1.09,1-.5-.42-.16-2.07-5.77,16.49-11.69,30.89-16.82,46a17.64,17.64,0,0,1-4.88,5.7c1.14-1-6.58,19.58-14.66,40.58-4.05,10.5-8.19,21.1-11.38,29.15S694.51,1194.81,694.28,1195.11Z" transform="translate(806.28 1226.72)" fill="#e29b43"/>
    </g>
    <g id="line-10">
      <path mask="url(#mask-lines-10)" d="M937.12,874.49c-1.34,4.44-1.86,12.1-2.44,19.35A90.63,90.63,0,0,0,937.12,874.49Z" transform="translate(806.28 1226.72)" fill="#f6c051"/>
      <path mask="url(#mask-lines-10)" d="M934.64,894v.12l0-.26Z" transform="translate(806.28 1226.72)" fill="#f6c051"/>
      <path mask="url(#mask-lines-10)" d="M1070.05,2300.9c-.2-1.81-.43-3.87-.65-6A20,20,0,0,0,1070.05,2300.9Z" transform="translate(806.28 1226.72)" fill="#f6c051"/>
      <path mask="url(#mask-lines-10)" d="M909.8,1245.22l3.33,1.1c-.94,17.2-4.21,5-4.32,20.92,2.27,3.11,1.78,9.71,1,16.23s-1.92,12.93-.72,15.68c-.4-.12-1,7.67-2.6,7.17,2.66,2.39.17,8,.6,12.93.68,1.78.93-1.31,1.86-2.64l.36,11.25c-1.16,4.4-2.93,5.48-3,.7-1.38,14.7-4.92,57.35-8.29,100.28s-6.51,86.14-6.61,102c2.9-4.07,1.72-13.85,6.05-17.57,1.84,8.38-1.52,12.33.72,16-6.41,3.21-2.53,18.4-9.34,24.74l3.46,2.4-2.47,4.17c1.55,36.83,1.37,8.41-1.52,41.06-.6,18.9,4.23,27.88,1.66,38.39.13-1.56,2.73-5.73,3.45-.83-3.46.83,1.74,13-1.85,15.41.16,4.8-1.14,20.33,3.92,15.07-2.51,2.64-4.26,16.5-5.89,8.25-.4,4.68-1.37,9.2-.49,12.57l1.68-6c-.14,15.79-4.45,24.39-.53,34.68l2.28-5.84c-.19,9.44-.21,17.34-5.38,21l-1-9.69c-.75,15.66-1,25.1,1,38.15l.4-4.66c2.07,8.31,3,34.21,4.37,59.94s3,51.31,6.13,59l4.56-7.06,3.1,13.18c.09-1.56-13.68-6.36-12.21-7.67-.45,14.12-1.5,57.88-2.87,101.37s-3.14,86.72-5.37,99.76c-3.19,10.52-7.85,1.89-8.6,1.77,1.18,12.8,4.92,5.52,4,16.41-1,3-3.84-.62-4.46-2.29.35,4.77-1.59,9.19.71,9.56,2.08-6,8.09-3.44,12.17-6l-1.12,14-3.87-.62c-.27,3.12,10.33,7.92,7.69,21.67-2.65,23.2-2.27,48.4-4.15,71.73-2.45-.37-3.7-5.26-4.92-10.17-.27,3.13.16,7.89-1.74,10.77,4.6-5.63,2.48,9.79,4.51,5.39,4.69,8.54,4.56,18.34,4,27.89s-1.54,18.85,1.7,26.39c4.64.66,44.49,8.73,85.34,16.64s82.53,15.66,88.2,15.66c.06,4.68.12,9.34-.74,10.77,2.61-1.21,3.35-10.42,1.54-15.31l-6.09-.84c-2.72-11.26,3.44-2.64,2.42-13.63,4.87-.58,6.52,9.53,7.53,18.44.11-8,3.2-16-2.37-19.27,1.59-7.54,6,.83,7.57-8.24-1.85-6.47-7.11-15-4.7-22.38l.86.13c1.93-9-.34-15.93-2.56-22.65s-4.4-13.22-2.49-21.47l1.68,1.78c2.36-5.83-2-17.31.23-27.83-.74,3-4,5.61-4.89-.72,2.19-12.09-1.21-20.34,1.81-29.18l-5-8.49c-.81-21-5.27-73.16-9.71-125.29S1041,1907,1039.51,1885.89l.7,1.66c-2.75-32.22-5.85-81.41-9.28-130.87s-7.19-99.18-11-132.48c2.51-10.3,1-24.51,1.29-35.26-.92,6-3.14,3.93-3.26-.74-1.32-32.74-2.16-2.21-5-35.33-2.26-19.06-4.28-65.08-5.79-110.57s-2.57-90.43-2.45-107.36c-2.16-9.09-2.85-19.31-3.39-29.48s-.95-20.31-2.38-29.21l.84,1.79c-1.06-9.56-2.13-41.42-3.3-73.67s-2.41-64.88-3.42-76l-.23,3c-2.55-19.39.43-16.74.48-32-2.73,2-5.08-14.61-5.55-20.95l.6.24c-.92-9.55-4.14-31.2-5.09-47l1.41.62c-2-13.17-2.43-37.91-3-47.37-.17-10.82-.09-24.56-.35-39.22s-.86-30.24-2.2-44.7q1.13-9.35,2.14-18.69l-.43-2.73a69.52,69.52,0,0,0-5.79-4.11,51.48,51.48,0,0,0-12.9-6.16c-4.78-1.38-9.75-1.56-14.08,1s-8.12,7.84-10.5,17.39l-1-.61-.24,7.55c-1,9.06.06,13.26-1,12.64l.76-12.42c-.77,9.11-1,2.75-1.43-.72-.3,3.8-.63,7.49-1.13,10.52.32,1.79.52-1.32.83-2.74.11,4.9.8,11.72,0,17.68-.59,9.33-1.85.6-2.57,11.48-2,28.68-4.26,56.93-6.41,85.25s-4.2,56.72-5.76,85.72c-.72,1.31-.61-.26-.79-1.93-.39,17.47-1.58,33-1.8,48.91a17.64,17.64,0,0,1-2.87,6.93c.76-1.31-.21,20.65-1.41,43.13-.6,11.23-1.27,22.6-1.82,31.24S909.93,1244.86,909.8,1245.22Z" transform="translate(806.28 1226.72)" fill="#f6c051"/>
    </g>
    <g id="line-9">
      <path mask="url(#mask-lines-9)" d="M1041.68,865.25c.11,4.63,2,12.08,3.66,19.16A90.1,90.1,0,0,0,1041.68,865.25Z" transform="translate(806.28 1226.72)" fill="#e29b43"/>
      <path mask="url(#mask-lines-9)" d="M1045.35,884.55l.05.11-.06-.25Z" transform="translate(806.28 1226.72)" fill="#e29b43"/>
      <path mask="url(#mask-lines-9)" d="M1608.89,2180.77l-2.46-5.47A20.1,20.1,0,0,0,1608.89,2180.77Z" transform="translate(806.28 1226.72)" fill="#e29b43"/>
      <path mask="url(#mask-lines-9)" d="M1130.26,1226.27l3.51,0c4.43,16.65-2.45,6.07,2.36,21.23,3.12,2.25,4.69,8.69,5.93,15.13s2.17,12.9,4.16,15.15c-.42,0,1.41,7.6-.25,7.62,3.26,1.45,2.64,7.56,4.56,12.1,1.2,1.49.48-1.52,1-3.08l3.83,10.59c.25,4.55-1.1,6.12-2.6,1.58,3.23,14.41,13,56.06,23.1,97.93s20.43,83.94,25.22,99c1.51-4.77-2.64-13.71.34-18.58,4.33,7.39,2.36,12.2,5.63,15-5.11,5,3.28,18.29-1.24,26.43l4,1.21-1.06,4.72c12.86,34.55,3.9,7.58,11.25,39.53,5.27,18.16,12.63,25.2,13.44,36-.36-1.53.83-6.3,3-1.86-3,1.86,5.69,11.85,3,15.23,1.64,4.51,5.2,19.69,8.39,13.12-1.57,3.29,1.05,17-3,9.66,1.06,4.57,1.54,9.18,3.42,12.11l-.26-6.23c4.75,15.06,3.31,24.58,10.21,33.15l.36-6.25c2.74,9,5.17,16.54,1.39,21.67l-3.92-8.92c4.12,15.13,6.82,24.18,12.74,36l-1.07-4.55c4.54,7.27,13.47,31.6,22.69,55.66s18.7,47.87,24.05,54.19l2.15-8.12,7,11.57c-.39-1.51-15-1.82-14-3.52,3.93,13.56,16.46,55.51,28.6,97.3s23.81,83.44,25.71,96.53c.22,11-6.87,4.22-7.63,4.34,5.08,11.81,6.39,3.73,8.86,14.38-.07,3.14-3.84.6-4.95-.8,1.81,4.43,1.33,9.23,3.63,8.87.14-6.32,6.63-5.77,9.73-9.44l3.26,13.67-3.87.6c.7,3.05,12.27,4.34,14,18.23,4.65,22.89,12.8,46.73,18.22,69.5-2.45.41-5.15-3.86-7.83-8.15.72,3.06,2.6,7.46,1.68,10.79,2.63-6.78,5.39,8.54,6,3.72,7.1,6.68,10,16,12.41,25.3s4.36,18.4,9.78,24.57c4.61-.81,45-5.45,86.31-10.55s83.32-10.61,88.71-12.36c1.51,4.43,3,8.84,2.63,10.47,2.11-2,0-10.94-3.26-15l-6.06,1.08c-6.07-9.87,2.46-3.57-1.91-13.71,4.45-2.06,9.15,7,12.86,15.21-2.38-7.66-1.91-16.21-8.21-17.6-.82-7.66,6-1.07,4.66-10.18-3.76-5.57-11.38-12-11.39-19.83l.86-.14c-1-9.18-5.25-15.05-9.43-20.74s-8.28-11.22-9-19.66l2.15,1.17c.44-6.27-7.24-15.84-8.38-26.53.22,3.08-2,6.55-4.87.83-1.66-12.18-7.44-19-7.3-28.32l-7.34-6.54c-7.28-19.77-27.62-68-48-116.16s-40.68-96.43-48.62-116.09l1.18,1.36c-12.57-29.8-30.72-75.62-49.27-121.59s-37.48-92.11-51.42-122.6c-.79-10.58-6.6-23.63-9.67-33.93,1,6-1.77,4.71-3.32.3-11.38-30.73-2.74-1.43-15.69-32-8-17.43-24.18-60.58-39.67-103.37s-30.39-85.21-35.51-101.34c-4.86-8-8.67-17.49-12.34-27s-7.17-19-11.28-27l1.35,1.45c-4-8.77-14.83-38.74-25.9-69s-22.35-61-26.75-71.22l.71,2.91c-8.42-17.65-4.77-16.06-9.43-30.61-2,2.76-9.35-12.32-11.76-18.2l.65,0c-3.83-8.81-13.59-28.4-19.37-43.11l1.54.15c-6-11.89-14-35.3-17.46-44.13-3.51-10.23-7.68-23.34-12.46-37.2s-10.16-28.48-15.9-41.82q-1.82-9.24-3.74-18.44l-1.25-2.47a69.65,69.65,0,0,0-6.78-2.11,51.48,51.48,0,0,0-14.17-1.88c-5,.17-9.76,1.54-13.08,5.3s-5.31,10-4.63,19.78l-1.15-.27,2.1,7.26c1.86,8.93,4.15,12.59,3,12.33l-3.11-12c2.08,8.89-.12,2.93-1.58-.25.88,3.71,1.71,7.32,2.17,10.35.85,1.61.09-1.41-.06-2.86,1.62,4.63,4.38,10.9,5.45,16.82,2.31,9.06-1.57,1.14,1.1,11.71,6.92,27.92,13.54,55.47,20.25,83.06s13.53,55.25,21,83.31c-.27,1.47-.65-.06-1.34-1.59,5,16.74,8.7,31.87,13.41,47.07a17.7,17.7,0,0,1-.6,7.48c.33-1.49,6.19,19.71,12,41.45,2.9,10.87,5.78,21.88,7.93,30.27S1130.27,1225.89,1130.26,1226.27Z" transform="translate(806.28 1226.72)" fill="#e29b43"/>
    </g>
    <g id="line-8">
      <path mask="url(#mask-lines-8)" d="M1138.27,824.15c1.53,4.37,5.61,10.88,9.4,17.09A89.72,89.72,0,0,0,1138.27,824.15Z" transform="translate(806.28 1226.72)" fill="#f6c051"/>
      <path mask="url(#mask-lines-8)" d="M1147.73,841.37l.07.09-.13-.22Z" transform="translate(806.28 1226.72)" fill="#f6c051"/>
      <path mask="url(#mask-lines-8)" d="M2084.24,1900l-4-4.45A20.59,20.59,0,0,0,2084.24,1900Z" transform="translate(806.28 1226.72)" fill="#f6c051"/>
      <path mask="url(#mask-lines-8)" d="M1334.08,1140.12l3.34-1c9.36,14.46-.46,6.52,8.8,19.45,3.67,1.18,7.15,6.82,10.32,12.56s6,11.6,8.64,13.12c-.4.13,3.69,6.79,2.11,7.33,3.56.36,4.85,6.38,8.08,10.1,1.6,1,0-1.6,0-3.23l6.92,8.89c1.64,4.25.84,6.16-2,2.31,7.53,12.71,29.73,49.29,52.23,86s45.37,73.52,54.6,86.39c0-5-6.75-12.21-5.43-17.77,6.41,5.69,6,10.87,10,12.54-3.3,6.37,8.77,16.38,7,25.51l4.21-.09.45,4.82c22.9,28.88,6,6,22.91,34.11,10.62,15.64,19.8,20.07,23.9,30.09-.81-1.34-1.15-6.24,2.3-2.7-2.31,2.71,9.08,9.51,7.57,13.56,3,3.78,11,17.11,12,9.88-.48,3.61,6.25,15.85.08,10.13,2.43,4,4.3,8.26,7,10.46l-2.16-5.84c9.16,12.85,10.74,22.35,19.95,28.37l-1.59-6.06c5.4,7.74,10,14.14,8,20.18l-6.49-7.27c8.59,13.11,14,20.89,23.23,30.28l-2.42-4c6.56,5.51,22.58,25.88,38.78,45.92s32.58,39.75,39.61,44.1l-.45-8.38,10.25,8.83c-.85-1.31-14.81,2.9-14.38,1,7.93,11.68,32.8,47.7,57.26,83.7s48.43,72,54.28,83.86c3.61,10.38-5.23,6.14-5.91,6.48,8.48,9.66,7.22,1.58,12.86,10.94.91,3-3.47,1.76-5,.77,3.09,3.65,4.12,8.37,6.19,7.31-1.82-6,4.52-7.53,6.35-12l7.31,12-3.49,1.77c1.61,2.69,13,.33,19,13,11.49,20.33,26.61,40.49,38.8,60.47-2.19,1.15-6.08-2.08-10-5.34,1.62,2.69,4.77,6.3,4.93,9.74.41-7.26,7.76,6.46,6.82,1.71,8.81,4.15,14.46,12.16,19.62,20.21s9.83,16.16,16.89,20.35c4.14-2.19,41.13-19.09,78.83-36.7s76-35.84,80.55-39.17c2.8,3.75,5.59,7.49,5.73,9.15,1.41-2.52-3.41-10.39-7.74-13.29l-5.43,2.9c-8.82-7.51,1.23-4.16-6-12.45,3.6-3.33,10.87,3.88,16.92,10.49-4.62-6.55-6.82-14.83-13.24-14.2-3.14-7,5.39-2.88,1.29-11.12-5.3-4.13-14.55-7.92-17-15.34l.77-.4c-3.75-8.44-9.64-12.69-15.38-16.81s-11.34-8.11-14.64-15.91l2.4.45c-1.52-6.1-11.78-12.84-16.17-22.65,1.17,2.86.1,6.86-4.37,2.29-5.34-11.07-12.94-15.75-15.69-24.67l-9-4c-13-16.55-47.26-56.09-81.49-95.66s-68.5-79.14-82.11-95.39l1.53.93c-21.16-24.45-52.58-62.42-84.43-100.41s-64.11-76-86.79-100.71c-4-9.81-13.57-20.43-19.68-29.28,2.77,5.37-.23,5-3.06,1.31-20.32-25.71-3.05-.51-24.83-25.63-13-14.1-41.71-50.14-69.67-86.05s-55.23-71.65-65.09-85.41c-7.09-6.09-13.65-14-20.07-21.87s-12.7-15.87-19.09-22.23l1.73,1c-6.48-7.12-26.07-32.27-46-57.67s-40.09-51.07-47.45-59.47l1.57,2.55c-13.46-14.19-9.49-13.8-18.43-26.2-1,3.24-12.7-8.83-16.8-13.68l.63-.16c-6.36-7.19-21.7-22.8-31.74-35l1.5-.33c-9.38-9.45-24.24-29.24-30.24-36.58-6.5-8.65-14.51-19.82-23.34-31.53s-18.47-24-28.05-34.86q-4.57-8.22-9.25-16.38l-1.95-2a70.41,70.41,0,0,0-7.1.08,51.49,51.49,0,0,0-14.06,2.6c-4.68,1.7-8.81,4.47-10.81,9.08s-2,11.11,1.72,20.24l-1.18.1,4.24,6.26c4.53,7.91,7.84,10.69,6.63,10.81l-6.68-10.5c4.72,7.82.78,2.83-1.59.26,2,3.25,3.89,6.43,5.26,9.17,1.32,1.27-.35-1.37-.93-2.7,3,3.9,7.53,9,10.38,14.32,5,7.89-1.15,1.56,4.66,10.79,15.21,24.41,30,48.57,44.93,72.74s29.94,48.36,45.72,72.74c.19,1.48-.64.14-1.77-1.1,10,14.37,18.12,27.62,27.29,40.62a17.62,17.62,0,0,1,1.75,7.3c-.15-1.51,12,16.83,24.21,35.72,6.12,9.44,12.26,19,16.9,26.34S1334,1139.76,1334.08,1140.12Z" transform="translate(806.28 1226.72)" fill="#f6c051"/>
    </g>
    <g id="line-7">
      <path mask="url(#mask-lines-7)" d="M1217.43,755.21c2.81,3.69,8.7,8.62,14.22,13.35A89.91,89.91,0,0,0,1217.43,755.21Z" transform="translate(806.28 1226.72)" fill="#e29b43"/>
      <path mask="url(#mask-lines-7)" d="M1231.75,768.67l.09.06-.19-.17Z" transform="translate(806.28 1226.72)" fill="#e29b43"/>
      <path mask="url(#mask-lines-7)" d="M2449.56,1486.09l-5.21-3A20.41,20.41,0,0,0,2449.56,1486.09Z" transform="translate(806.28 1226.72)" fill="#e29b43"/>
      <path mask="url(#mask-lines-7)" d="M1501.3,995.21l2.85-2c13.37,10.87,1.58,6.35,14.38,15.79,3.85,0,8.9,4.27,13.7,8.76s9.34,9.15,12.27,9.8c-.34.25,5.6,5.32,4.27,6.32,3.49-.75,6.58,4.56,10.81,7.11,1.84.49-.51-1.52-1-3l9.32,6.31c2.88,3.53,2.71,5.6-1.17,2.81,11.08,9.76,43.5,37.69,76.25,65.65s65.87,55.9,78.62,65.29c-1.59-4.74-10.19-9.53-10.65-15.22,7.85,3.43,9.08,8.48,13.38,8.83-1.17,7.08,13.4,12.87,14.53,22.1l4-1.38,1.91,4.44c30.71,20.4,7.61,3.85,32.34,25.37,14.93,11.59,25,13,32,21.23-1.19-1-3-5.58,1.35-3.29-1.36,3.29,11.57,6.25,11.38,10.56,4,2.69,15.78,12.87,14.5,5.69.66,3.58,10.84,13.14,3.21,9.61,3.55,3.07,6.64,6.52,9.88,7.78l-3.86-4.89c12.69,9.4,17.12,17.94,27.74,20.82l-3.39-5.27c7.53,5.7,13.91,10.35,13.87,16.71l-8.42-4.9c12.22,9.81,19.73,15.55,31.45,21.61l-3.54-3c8,3.21,29.47,17.64,51.07,31.69s43.27,27.73,51.31,29.7l-3-7.83,12.48,5.23c-1.21-1-13.18,7.33-13.38,5.37,11.16,8.66,46,35.23,80.33,61.91s68.31,53.51,77.54,63c6.64,8.76-3.08,7.46-3.62,8,11,6.57,7.36-.73,15.61,6.42,1.8,2.58-2.75,2.75-4.47,2.26,4.07,2.53,6.51,6.69,8.15,5-3.6-5.19,2-8.56,2.33-13.35l10.66,9.13-2.77,2.77c2.36,2,12.48-3.71,22.05,6.51,17.21,15.78,37.82,30.28,55.59,45.52-1.73,1.77-6.43-.1-11.12-2,2.37,2.05,6.48,4.5,7.69,7.74-1.85-7,9.39,3.74,7-.49,9.67,1.23,17.52,7.09,24.92,13.16s14.34,12.33,22.34,14.14c3.26-3.37,33.22-30.87,63.63-59.27s61.18-57.56,64.51-62.15c3.82,2.71,7.63,5.4,8.28,6.93.56-2.82-6.46-8.82-11.47-10.24l-4.27,4.43c-10.71-4.41-.11-4.33-9.6-10,2.39-4.28,11.54.33,19.34,4.75-6.43-4.8-11.07-12-17-9.41-5.16-5.72,4.24-4.4-2.21-11-6.32-2.3-16.28-3-20.87-9.36l.61-.61c-6.17-6.87-13.09-9.09-19.82-11.24s-13.29-4.21-18.84-10.6l2.43-.32c-3.34-5.33-15.18-8.57-22.38-16.55,2,2.37,2.21,6.5-3.45,3.54-8.5-8.88-17.17-11-22.55-18.62l-9.78-1c-17.51-11.72-62.29-38.74-107.07-65.79s-89.6-54.11-107.57-65.35l1.75.41c-27.68-16.72-69.3-43.13-111.33-69.41s-84.46-52.49-113.66-69c-6.86-8.09-19.23-15.24-27.77-21.77,4.3,4.25,1.33,4.85-2.51,2.2-27.27-18.18-3.06.45-31.53-16.71-16.75-9.38-55.17-34.8-92.85-60.31s-74.67-51.08-88.3-61.12c-8.62-3.59-17.29-9.05-25.85-14.59s-17-11.17-25-15.25l1.94.38c-8.36-4.76-34.77-22.62-61.54-40.63s-53.91-36.19-63.5-41.91l2.28,1.95c-17.18-9.34-13.3-10.19-25.62-19.22,0,3.39-14.81-4.48-20.22-7.82l.56-.35c-8.28-4.87-27.68-15-41-23.49l1.33-.78c-11.85-6.09-32.09-20.32-40.06-25.44-8.86-6.22-19.93-14.37-31.94-22.77s-25-17.07-37.46-24.49q-6.88-6.4-13.86-12.72l-2.46-1.26a68,68,0,0,0-6.73,2.27,51.77,51.77,0,0,0-12.57,6.81c-3.92,3.07-7,7-7.47,12s1.57,11.17,7.89,18.72l-1.09.46,6,4.64c6.75,6.12,10.76,7.74,9.64,8.23l-9.6-7.91c6.92,6,1.63,2.44-1.43.73,2.9,2.48,5.69,4.91,7.85,7.1,1.63.79-.76-1.2-1.73-2.28,4,2.79,10,6.24,14.29,10.41,7.2,6-.6,1.84,7.78,8.82,22,18.52,43.55,36.91,65.2,55.3s43.42,36.73,66,55c.64,1.36-.56.34-2-.49,13.9,10.58,25.77,20.67,38.51,30.2a17.64,17.64,0,0,1,3.92,6.4c-.61-1.39,16.58,12.31,34.06,26.49,8.74,7.09,17.54,14.31,24.21,19.83S1501.08,994.9,1501.3,995.21Z" transform="translate(806.28 1226.72)" fill="#e29b43"/>
    </g>
    <g id="line-6">
      <path mask="url(#mask-lines-6)" d="M1271.41,665.19c3.82,2.63,10.94,5.5,17.65,8.3A89.19,89.19,0,0,0,1271.41,665.19Z" transform="translate(806.28 1226.72)" fill="#f6c051"/>
      <path mask="url(#mask-lines-6)" d="M1289.19,673.56l.11,0-.24-.1Z" transform="translate(806.28 1226.72)" fill="#f6c051"/>
      <path mask="url(#mask-lines-6)" d="M2669.09,979.55l-5.88-1.23A20.42,20.42,0,0,0,2669.09,979.55Z" transform="translate(806.28 1226.72)" fill="#f6c051"/>
      <path mask="url(#mask-lines-6)" d="M1615.55,805.72l2.08-2.82c16.08,6.2,3.47,5.55,18.56,10.57,3.66-1.2,9.79,1.31,15.73,4.09s11.72,5.83,14.7,5.54c-.24.34,7,3.33,6,4.68,3.09-1.79,7.67,2.31,12.47,3.43,1.91-.1-.95-1.29-1.93-2.58l10.81,3.12c3.83,2.47,4.31,4.49-.25,3,13.56,5.85,53,22.4,92.81,38.87s79.92,32.81,95,37.8c-3-4-12.64-5.91-14.84-11.18,8.54.83,11.26,5.25,15.46,4.26,1.08,7.1,16.72,8.1,20.65,16.53l3.35-2.54,3.2,3.63c35.51,9.91,8.42,1.3,38.59,14.13,17.78,6.41,27.81,4.6,37,10.29-1.45-.61-4.6-4.37.27-3.54-.27,3.56,12.93,2.37,14.09,6.53,4.61,1.32,19,7.36,15.55.93,1.73,3.2,14.37,9.14,6,8.14,4.32,1.83,8.33,4.15,11.8,4.35l-5.19-3.45c15,5,21.83,11.77,32.82,11.22l-4.85-4c8.92,3.09,16.43,5.54,18.36,11.61l-9.52-2.07c14.65,5.56,23.56,8.7,36.58,10.84l-4.3-1.81c8.54.6,33.47,7.67,58.36,14.36s49.72,13,58,12.39l-5.3-6.51,13.49,1.12c-1.46-.57-10.28,11-11.07,9.24,13.29,4.79,54.59,19.31,95.53,34.06s81.5,29.78,93.21,35.93c9,6.28-.63,8-1,8.73,12.54,2.83,6.77-3,16.83,1.29,2.51,1.89-1.77,3.46-3.55,3.52,4.64,1.15,8.25,4.36,9.3,2.29-5-3.83-.77-8.76-1.91-13.42l13,5.39-1.78,3.49c2.88,1.22,10.72-7.38,23-.62,21.25,9.69,45.33,17.11,66.94,26.11-1.11,2.22-6.15,1.9-11.2,1.54,2.89,1.22,7.56,2.29,9.71,5-3.94-6.11,10.08.67,6.52-2.62,9.57-1.83,18.85,1.33,27.76,4.82s17.45,7.29,25.62,6.53c2.06-4.2,22.06-39.62,42.2-76s40.39-73.65,42.15-79c4.47,1.39,8.92,2.77,10,4-.34-2.86-8.87-6.4-14.08-6.2l-2.68,5.53c-11.55-.88-1.45-4.08-12.21-6.51.95-4.81,11.07-3.25,19.85-1.46-7.59-2.58-14.23-8-19.05-3.7-6.68-3.84,2.66-5.5-5.5-9.75-6.72-.24-16.42,2.14-22.74-2.45l.39-.78c-8-4.62-15.25-4.6-22.32-4.56s-13.95.11-21.2-4.26l2.21-1.05c-4.82-4-17.08-3.46-26.39-8.82,2.62,1.63,4.11,5.5-2.19,4.43-10.83-5.82-19.73-5.14-27.2-10.74l-9.61,2.09c-20.27-5.73-71.2-17.59-122.16-29.48S2285.52,885.48,2265,880.34l1.79-.15c-31.5-7.35-79.23-19.6-127.33-31.61s-96.55-23.82-129.41-30.46c-9-5.58-23-8.55-33.13-12.12,5.4,2.72,2.76,4.2-1.71,2.86-31.55-8.86-2.77,1.38-35.15-6.14-18.83-3.75-63.22-16.05-107-28.67s-86.8-25.5-102.86-30.84c-9.31-.76-19.24-3.26-29.09-5.89s-19.6-5.38-28.51-6.77l2-.24c-9.43-1.95-40.06-10.77-71.09-19.63s-62.45-17.75-73.34-20.23l2.77,1.15c-19.22-3.57-15.79-5.59-30.31-10.37,1.07,3.23-15.46.33-21.63-1.18l.41-.51c-9.37-2.07-31-5.69-46.26-9.67l1-1.15c-13.15-2.13-36.8-9.41-46-11.82-10.34-3.17-23.39-7.5-37.41-11.78s-29-8.52-43.19-11.72q-8.53-4-17.11-7.81l-2.73-.44a69.86,69.86,0,0,0-5.69,4.24,51.65,51.65,0,0,0-9.86,10.36c-2.78,4.13-4.49,8.8-3.4,13.7s4.94,10.15,13.29,15.37l-.89.77,7.1,2.57c8.32,3.74,12.63,4,11.72,4.85l-11.58-4.56c8.42,3.55,2.3,1.82-1.13,1.14,3.52,1.46,6.93,2.92,9.65,4.33,1.81.25-1.09-.91-2.34-1.64,4.69,1.41,11.39,2.86,16.81,5.48,8.68,3.45,0,1.94,10.11,6,26.66,10.81,52.83,21.65,79.11,32.44s52.64,21.53,79.74,32c1,1.09-.43.5-2.08.16,16.5,5.77,30.9,11.69,46,16.82A17.72,17.72,0,0,1,1532,774c-1-1.14,19.57,6.58,40.57,14.66,10.5,4.05,21.11,8.19,29.16,11.38S1615.25,805.49,1615.55,805.72Z" transform="translate(806.28 1226.72)" fill="#f6c051"/>
    </g>
    <g id="line-5">
      <path mask="url(#mask-lines-5)" d="M1294.94,562.88c4.44,1.34,12.1,1.86,19.35,2.44A90.72,90.72,0,0,0,1294.94,562.88Z" transform="translate(806.28 1226.72)" fill="#e29b43"/>
      <path mask="url(#mask-lines-5)" d="M1314.43,565.36h.11l-.25,0Z" transform="translate(806.28 1226.72)" fill="#e29b43"/>
      <path mask="url(#mask-lines-5)" d="M2721.35,430l-6,.65A20,20,0,0,0,2721.35,430Z" transform="translate(806.28 1226.72)" fill="#e29b43"/>
      <path mask="url(#mask-lines-5)" d="M1665.66,590.2l1.11-3.33c17.2.94,5,4.21,20.91,4.32,3.11-2.27,9.72-1.78,16.23-1s12.94,1.92,15.69.72c-.13.4,7.66,1,7.17,2.6,2.38-2.66,8-.17,12.92-.6,1.78-.68-1.31-.93-2.64-1.86l11.25-.36c4.4,1.16,5.49,2.93.71,3,14.7,1.38,57.34,4.92,100.27,8.29s86.15,6.51,102,6.61c-4.08-2.9-13.86-1.72-17.57-6.05,8.37-1.84,12.33,1.52,16-.72,3.21,6.41,18.4,2.53,24.75,9.34l2.4-3.46,4.16,2.47c36.83-1.55,8.42-1.37,41.07,1.52,18.89.6,27.87-4.23,38.39-1.66-1.57-.13-5.73-2.73-.84-3.45.84,3.46,13-1.74,15.42,1.85,4.79-.16,20.33,1.14,15.07-3.92,2.64,2.51,16.5,4.26,8.24,5.89,4.68.4,9.21,1.37,12.57.49l-6-1.68c15.79.14,24.4,4.45,34.68.53l-5.83-2.28c9.44.19,17.33.21,21,5.38l-9.69,1c15.65.75,25.09,1,38.14-1l-4.66-.4c8.32-2.07,34.21-3,59.95-4.37s51.3-3,59-6.13l-7.05-4.56,13.17-3.1c-1.56-.09-6.36,13.68-7.66,12.21,14.11.45,57.88,1.5,101.37,2.87s86.72,3.14,99.75,5.37c10.52,3.19,1.89,7.85,1.78,8.6,12.8-1.18,5.52-4.92,16.4-4,3,1-.61,3.84-2.29,4.46,4.77-.35,9.2,1.59,9.56-.71-6-2.08-3.44-8.09-6-12.17l14,1.12-.62,3.87c3.12.27,7.91-10.33,21.66-7.69,23.2,2.65,48.4,2.27,71.73,4.15-.36,2.45-5.26,3.7-10.17,4.92,3.13.27,7.9-.16,10.78,1.74-5.64-4.6,9.79-2.48,5.38-4.51,8.55-4.69,18.35-4.56,27.89-4s18.85,1.54,26.39-1.7c.66-4.64,8.74-44.49,16.64-85.34s15.66-82.53,15.66-88.2c4.68-.06,9.34-.12,10.77.74-1.21-2.61-10.41-3.35-15.3-1.54l-.85,6.09c-11.25,2.72-2.63-3.44-13.62-2.42-.59-4.87,9.52-6.52,18.43-7.53-8-.11-16-3.2-19.27,2.37-7.53-1.59.84-6.05-8.24-7.57-6.46,1.85-14.95,7.11-22.38,4.7l.13-.86c-9-1.93-15.93.34-22.64,2.56s-13.23,4.4-21.48,2.49l1.78-1.68c-5.83-2.36-17.31,2-27.83-.23,3,.74,5.61,4-.71,4.89-12.1-2.19-20.35,1.21-29.19-1.81l-8.48,5c-21.06.81-73.17,5.27-125.3,9.71s-104.28,8.89-125.43,10.36l1.65-.7c-32.22,2.75-81.41,5.85-130.86,9.28s-99.18,7.19-132.49,11c-10.3-2.51-24.51-1-35.26-1.29,6,.92,3.93,3.14-.73,3.26-32.75,1.32-2.21,2.16-35.33,5-19.07,2.26-65.09,4.28-110.57,5.79s-90.43,2.57-107.36,2.45c-9.09,2.16-19.31,2.85-29.49,3.39s-20.3.95-29.21,2.38l1.8-.84c-9.57,1.06-41.43,2.13-73.68,3.3s-64.88,2.41-76,3.42l3,.23c-19.39,2.55-16.75-.43-32-.49,2,2.74-14.61,5.09-20.94,5.56l.24-.6c-9.56.92-31.21,4.14-47,5.09l.62-1.41c-13.16,2-37.91,2.43-47.37,3-10.81.17-24.56.09-39.22.35s-30.23.86-44.69,2.2q-9.35-1.12-18.69-2.14l-2.74.43a68.24,68.24,0,0,0-4.1,5.79,51.49,51.49,0,0,0-6.17,12.9c-1.37,4.78-1.55,9.75,1,14.08s7.83,8.12,17.38,10.5l-.61,1,7.56.24c9.06,1,13.25-.06,12.63,1l-12.41-.76c9.1.77,2.75,1-.73,1.43,3.8.3,7.49.63,10.52,1.13,1.79-.32-1.32-.52-2.74-.83,4.9-.11,11.72-.8,17.69,0,9.32.59.59,1.85,11.47,2.57,28.69,2,56.93,4.26,85.25,6.41s56.72,4.2,85.72,5.76c1.32.72-.25.61-1.93.79,17.48.39,33,1.58,48.91,1.8a17.8,17.8,0,0,1,6.94,2.87c-1.32-.76,20.65.21,43.12,1.41,11.24.6,22.6,1.27,31.24,1.82S1665.3,590.07,1665.66,590.2Z" transform="translate(806.28 1226.72)" fill="#e29b43"/>
    </g>
    <g id="line-4">
      <path mask="url(#mask-lines-4)" d="M1285.69,458.32c4.64-.11,12.09-2,19.16-3.66A90.22,90.22,0,0,0,1285.69,458.32Z" transform="translate(806.28 1226.72)" fill="#f6c051"/>
      <path mask="url(#mask-lines-4)" d="M1305,454.65l.1,0-.25.06Z" transform="translate(806.28 1226.72)" fill="#f6c051"/>
      <path mask="url(#mask-lines-4)" d="M2601.22-108.89l-5.48,2.46A20.16,20.16,0,0,0,2601.22-108.89Z" transform="translate(806.28 1226.72)" fill="#f6c051"/>
      <path mask="url(#mask-lines-4)" d="M1646.71,369.74l0-3.51c16.65-4.43,6.06,2.45,21.22-2.36,2.26-3.12,8.69-4.69,15.14-5.93s12.9-2.17,15.14-4.16c0,.42,7.6-1.41,7.62.25,1.45-3.26,7.57-2.64,12.11-4.56,1.48-1.2-1.53-.48-3.08-1l10.58-3.83c4.55-.25,6.13,1.1,1.59,2.6,14.41-3.23,56.06-13,97.93-23.1s83.94-20.43,99-25.22c-4.77-1.51-13.7,2.64-18.58-.34,7.4-4.33,12.2-2.36,15-5.63,5,5.11,18.28-3.28,26.42,1.24l1.22-4,4.72,1.06c34.55-12.86,7.58-3.9,39.52-11.25,18.16-5.27,25.21-12.63,36-13.44-1.53.36-6.29-.83-1.86-3,1.87,3,11.86-5.69,15.24-3,4.5-1.64,19.68-5.2,13.12-8.39,3.28,1.57,17-1,9.66,3.05,4.57-1.06,9.18-1.54,12.1-3.42l-6.22.26c15.06-4.75,24.57-3.31,33.14-10.21l-6.25-.36c9-2.74,16.55-5.17,21.67-1.39L2110,244c15.12-4.12,24.17-6.82,36-12.74l-4.55,1.07c7.26-4.54,31.59-13.47,55.65-22.69s47.87-18.7,54.19-24l-8.12-2.15,11.57-7c-1.51.39-1.82,15-3.51,14,13.56-3.93,55.5-16.46,97.29-28.6S2432,138,2445.05,136.11c11-.22,4.23,6.87,4.35,7.63,11.81-5.08,3.73-6.39,14.37-8.86,3.14.07.6,3.84-.8,5,4.43-1.81,9.24-1.33,8.87-3.63-6.31-.14-5.77-6.63-9.43-9.73l13.66-3.26.61,3.87c3.05-.7,4.33-12.27,18.23-14,22.88-4.65,46.73-12.8,69.5-18.22.41,2.45-3.86,5.15-8.15,7.83,3-.72,7.45-2.6,10.78-1.68-6.78-2.63,8.54-5.39,3.73-6,6.67-7.1,16-10,25.29-12.41s18.4-4.36,24.57-9.78c-.81-4.61-5.44-45-10.54-86.31s-10.62-83.32-12.37-88.71c4.44-1.51,8.85-3,10.47-2.63-2-2.11-10.93,0-15,3.26l1.08,6.06c-9.86,6.07-3.57-2.46-13.7,1.91-2.07-4.45,7-9.15,15.2-12.86-7.66,2.38-16.21,1.91-17.59,8.21-7.66.82-1.08-6-10.18-4.66-5.57,3.76-12,11.38-19.83,11.39l-.15-.86c-9.18,1-15,5.25-20.74,9.43s-11.22,8.28-19.65,9l1.17-2.15c-6.28-.44-15.85,7.24-26.54,8.38,3.08-.22,6.56,2,.83,4.87-12.18,1.66-19,7.44-28.32,7.3l-6.53,7.34c-19.77,7.28-67.95,27.62-116.16,48S2235.61,40.46,2216,48.4l1.36-1.18c-29.8,12.57-75.62,30.72-121.59,49.27s-92.11,37.48-122.6,51.42c-10.57.79-23.63,6.6-33.93,9.67,6-1,4.71,1.77.31,3.32-30.74,11.38-1.43,2.74-32,15.69-17.44,8-60.58,24.18-103.37,39.67s-85.22,30.39-101.35,35.51c-8,4.86-17.49,8.67-27,12.34s-19,7.17-27,11.28l1.44-1.35c-8.77,4-38.73,14.83-69,25.9s-61,22.35-71.23,26.75l2.92-.71c-17.66,8.42-16.07,4.77-30.62,9.43,2.76,2-12.32,9.35-18.2,11.76l0-.65c-8.8,3.83-28.39,13.59-43.11,19.37l.16-1.54c-11.89,6-35.31,14-44.14,17.46-10.23,3.51-23.33,7.68-37.19,12.46s-28.49,10.16-41.83,15.9q-9.24,1.81-18.43,3.74l-2.47,1.25a67.8,67.8,0,0,0-2.12,6.78,51.86,51.86,0,0,0-1.88,14.17c.18,5,1.54,9.76,5.3,13.08s10,5.31,19.78,4.63l-.26,1.15,7.26-2.1c8.92-1.86,12.58-4.15,12.32-3l-12,3.11c8.9-2.08,2.93.12-.25,1.58,3.71-.88,7.32-1.71,10.36-2.17,1.6-.85-1.42-.09-2.86.06,4.62-1.62,10.89-4.38,16.82-5.45,9-2.31,1.13,1.57,11.71-1.1,27.91-6.92,55.46-13.54,83.06-20.25s55.24-13.53,83.3-21c1.48.27,0,.65-1.59,1.34,16.74-5,31.87-8.7,47.07-13.41a17.7,17.7,0,0,1,7.48.6c-1.48-.33,19.71-6.19,41.45-12,10.88-2.9,21.89-5.78,30.28-7.93S1646.34,369.73,1646.71,369.74Z" transform="translate(806.28 1226.72)" fill="#f6c051"/>
    </g>
    <g id="line-3">
      <path mask="url(#mask-lines-3)" d="M1244.59,361.73c4.38-1.53,10.88-5.61,17.09-9.4A90,90,0,0,0,1244.59,361.73Z" transform="translate(806.28 1226.72)" fill="#e29b43"/>
      <path mask="url(#mask-lines-3)" d="M1261.82,352.27l.08-.07-.22.13Z" transform="translate(806.28 1226.72)" fill="#e29b43"/>
      <path mask="url(#mask-lines-3)" d="M2320.45-584.24l-4.45,4A20.36,20.36,0,0,0,2320.45-584.24Z" transform="translate(806.28 1226.72)" fill="#e29b43"/>
      <path mask="url(#mask-lines-3)" d="M1560.57,165.92l-1.06-3.34c14.47-9.35,6.52.46,19.46-8.8,1.18-3.67,6.81-7.15,12.56-10.32s11.59-6.05,13.11-8.64c.14.4,6.8-3.69,7.33-2.11.37-3.56,6.38-4.85,10.1-8.08,1-1.6-1.6,0-3.22.05l8.88-6.92c4.25-1.64,6.17-.84,2.31,2,12.71-7.53,49.29-29.73,86-52.23s73.51-45.37,86.39-54.6c-5,.05-12.22,6.75-17.78,5.43,5.7-6.41,10.87-6,12.54-10,6.37,3.3,16.38-8.77,25.51-7l-.09-4.21,4.82-.45c28.89-22.9,6-6,34.12-22.91,15.64-10.62,20.07-19.8,30.08-23.9-1.34.81-6.24,1.15-2.7-2.3,2.71,2.31,9.52-9.08,13.56-7.57,3.78-3,17.11-11,9.89-12,3.6.48,15.85-6.25,10.13-.08,4-2.43,8.25-4.3,10.46-7l-5.85,2.16c12.86-9.16,22.35-10.74,28.37-20l-6.06,1.59c7.75-5.4,14.14-10,20.18-8l-7.26,6.49c13.11-8.59,20.88-14,30.27-23.23l-4,2.42c5.51-6.56,25.89-22.58,45.93-38.78S2074.3-189,2078.66-196l-8.39.45,8.84-10.25c-1.32.85,2.89,14.81,1,14.38,11.69-7.93,47.7-32.8,83.7-57.26s72-48.43,83.86-54.28c10.38-3.61,6.14,5.23,6.49,5.91,9.66-8.48,1.58-7.22,10.93-12.86,3-.91,1.76,3.47.77,4.95,3.66-3.09,8.37-4.12,7.32-6.19-6.05,1.82-7.54-4.52-12-6.34l12-7.32,1.78,3.49c2.68-1.61.33-13,13-19,20.32-11.49,40.48-26.61,60.46-38.8,1.15,2.19-2.08,6.08-5.33,10,2.69-1.62,6.29-4.77,9.74-4.93-7.26-.41,6.46-7.76,1.7-6.82,4.16-8.81,12.16-14.46,20.22-19.62s16.15-9.83,20.35-16.89c-2.2-4.14-19.09-41.13-36.7-78.83s-35.85-76-39.18-80.55c3.76-2.8,7.49-5.59,9.15-5.73-2.51-1.41-10.39,3.41-13.29,7.74l2.9,5.43c-7.5,8.82-4.16-1.23-12.44,6.05-3.34-3.6,3.87-10.87,10.48-16.92-6.55,4.62-14.82,6.82-14.19,13.24-7,3.14-2.88-5.39-11.12-1.29-4.14,5.3-7.92,14.55-15.35,17l-.39-.77c-8.44,3.75-12.69,9.64-16.82,15.38s-8.11,11.34-15.9,14.64l.44-2.4c-6.1,1.52-12.83,11.78-22.65,16.17,2.87-1.17,6.87-.1,2.3,4.37-11.07,5.34-15.75,12.94-24.68,15.69l-3.95,9c-16.55,13-56.09,47.26-95.65,81.49s-79.15,68.5-95.39,82.11l.93-1.53c-24.46,21.16-62.43,52.58-100.42,84.43s-76,64.11-100.71,86.79c-9.81,4-20.43,13.57-29.28,19.68,5.38-2.77,5,.23,1.32,3.06-25.72,20.32-.52,3-25.63,24.83-14.1,13-50.15,41.71-86.06,69.67s-71.65,55.23-85.41,65.09c-6.09,7.09-14,13.65-21.86,20.07s-15.87,12.7-22.24,19.09l1-1.73c-7.11,6.48-32.26,26.07-57.66,46s-51.08,40.09-59.48,47.45l2.56-1.57c-14.19,13.46-13.81,9.49-26.2,18.43,3.23,1-8.83,12.7-13.68,16.8l-.16-.63c-7.19,6.36-22.81,21.7-35,31.74l-.33-1.5c-9.45,9.38-29.24,24.24-36.58,30.24-8.64,6.5-19.82,14.51-31.52,23.34s-24,18.47-34.87,28.05q-8.22,4.57-16.37,9.25l-2,1.95a67,67,0,0,0,.08,7.1,51.46,51.46,0,0,0,2.59,14.06c1.7,4.68,4.48,8.81,9.08,10.81s11.12,2,20.24-1.72l.11,1.18,6.25-4.24c7.91-4.53,10.69-7.84,10.81-6.63l-10.49,6.68c7.82-4.72,2.82-.78.25,1.59,3.26-2,6.44-3.89,9.18-5.26,1.26-1.32-1.38.35-2.7.93,3.89-3,9-7.53,14.31-10.38,7.89-5,1.57,1.15,10.8-4.66,24.41-15.21,48.56-30,72.73-44.93S1414.58,258,1439,242.18c1.49-.19.15.64-1.1,1.77,14.37-9.95,27.63-18.12,40.63-27.29a17.59,17.59,0,0,1,7.3-1.75c-1.52.15,16.83-12,35.71-24.21,9.45-6.12,19-12.26,26.35-16.9S1560.21,166,1560.57,165.92Z" transform="translate(806.28 1226.72)" fill="#e29b43"/>
    </g>
    <g id="line-2">
      <path mask="url(#mask-lines-2)" d="M1175.66,282.57c3.68-2.81,8.61-8.7,13.34-14.22A89.44,89.44,0,0,0,1175.66,282.57Z" transform="translate(806.28 1226.72)" fill="#f6c051"/>
      <path mask="url(#mask-lines-2)" d="M1189.11,268.25l.06-.09-.17.19Z" transform="translate(806.28 1226.72)" fill="#f6c051"/>
      <path mask="url(#mask-lines-2)" d="M1906.54-949.56l-3,5.21A20.15,20.15,0,0,0,1906.54-949.56Z" transform="translate(806.28 1226.72)" fill="#f6c051"/>
      <path mask="url(#mask-lines-2)" d="M1415.66-1.3l-2-2.85c10.86-13.37,6.34-1.58,15.78-14.38,0-3.85,4.28-8.9,8.76-13.7s9.16-9.34,9.81-12.27c.24.34,5.32-5.6,6.31-4.27-.75-3.49,4.57-6.58,7.11-10.81.49-1.84-1.52.51-3.05,1l6.31-9.32c3.54-2.88,5.61-2.71,2.82,1.17,9.75-11.08,37.68-43.5,65.65-76.25s55.9-65.87,65.29-78.62c-4.75,1.59-9.53,10.19-15.23,10.65,3.43-7.85,8.48-9.08,8.84-13.38,7.07,1.17,12.86-13.4,22.1-14.53l-1.38-4,4.44-1.91c20.39-30.71,3.84-7.61,25.36-32.34,11.6-14.93,13-25,21.23-32-1,1.19-5.58,3-3.28-1.35,3.29,1.36,6.25-11.57,10.56-11.38,2.68-4,12.87-15.78,5.68-14.5,3.58-.66,13.14-10.84,9.61-3.21,3.07-3.55,6.52-6.64,7.79-9.88l-4.89,3.86c9.39-12.69,17.94-17.12,20.81-27.74l-5.27,3.39c5.7-7.53,10.35-13.91,16.72-13.87l-4.91,8.42c9.82-12.22,15.55-19.73,21.61-31.45l-3,3.54c3.21-7.95,17.64-29.47,31.69-51.07s27.74-43.27,29.71-51.31l-7.84,3,5.24-12.48c-1,1.21,7.32,13.18,5.37,13.38,8.66-11.16,35.23-45.95,61.9-80.33s53.51-68.31,63-77.54c8.77-6.64,7.46,3.08,8,3.62,6.57-11-.73-7.36,6.43-15.61,2.58-1.8,2.74,2.75,2.26,4.47,2.52-4.07,6.69-6.51,5-8.15-5.19,3.6-8.56-2-13.35-2.33l9.14-10.66,2.76,2.77c2.06-2.36-3.7-12.47,6.52-22,15.78-17.21,30.28-37.82,45.51-55.59,1.77,1.73-.09,6.43-2,11.12,2-2.37,4.51-6.48,7.74-7.69-7,1.85,3.74-9.39-.49-7,1.23-9.67,7.1-17.52,13.17-24.92s12.32-14.34,14.13-22.34c-3.36-3.26-30.86-33.22-59.26-63.63s-57.57-61.18-62.15-64.51c2.7-3.82,5.39-7.63,6.93-8.28-2.83-.56-8.83,6.46-10.25,11.48l4.43,4.26c-4.41,10.71-4.33.11-10,9.6-4.28-2.39.32-11.54,4.74-19.34-4.8,6.43-12,11.07-9.41,17-5.71,5.16-4.4-4.24-11,2.21-2.3,6.32-3,16.28-9.35,20.87l-.62-.61c-6.86,6.17-9.09,13.09-11.24,19.82s-4.21,13.29-10.6,18.84l-.32-2.43c-5.33,3.34-8.56,15.18-16.54,22.38,2.36-2,6.5-2.21,3.53,3.45-8.88,8.5-11,17.17-18.62,22.55l-1,9.78c-11.72,17.51-38.74,62.29-65.79,107.07s-54.1,89.6-65.35,107.57l.41-1.75c-16.72,27.68-43.12,69.3-69.41,111.33s-52.49,84.46-69,113.66c-8.09,6.86-15.24,19.23-21.76,27.77,4.25-4.3,4.85-1.33,2.19,2.51-18.17,27.27.46,3.06-16.7,31.53-9.38,16.75-34.8,55.17-60.31,92.85s-51.08,74.67-61.12,88.3c-3.6,8.62-9.05,17.29-14.59,25.85s-11.17,17-15.25,25l.38-1.94c-4.77,8.36-22.63,34.77-40.64,61.54s-36.19,53.91-41.9,63.5l1.94-2.28c-9.33,17.18-10.19,13.3-19.22,25.62,3.39,0-4.47,14.81-7.82,20.22l-.34-.56c-4.88,8.28-15,27.69-23.5,41l-.78-1.33c-6.08,11.85-20.32,32.09-25.44,40.06-6.21,8.86-14.37,19.93-22.77,31.94s-17.07,25-24.49,37.46q-6.4,6.88-12.71,13.86l-1.27,2.46a70,70,0,0,0,2.28,6.73,51.77,51.77,0,0,0,6.81,12.57c3.06,3.92,7,7,12,7.47s11.18-1.57,18.72-7.89l.46,1.09,4.64-6c6.13-6.75,7.75-10.76,8.24-9.64l-7.92,9.6c6-6.92,2.44-1.63.73,1.43,2.49-2.9,4.92-5.69,7.1-7.85.8-1.63-1.2.76-2.28,1.73,2.79-4,6.24-10,10.41-14.29,6-7.2,1.84.6,8.83-7.78,18.51-22,36.91-43.55,55.29-65.2s36.74-43.42,55-66c1.35-.64.34.56-.5,2,10.59-13.9,20.68-25.77,30.2-38.51a17.56,17.56,0,0,1,6.41-3.92c-1.4.61,12.3-16.58,26.48-34.06,7.09-8.74,14.31-17.54,19.83-24.21S1415.35-1.08,1415.66-1.3Z" transform="translate(806.28 1226.72)" fill="#f6c051"/>
    </g>
    <g id="line-1">
      <path mask="url(#mask-lines-1)" d="M1085.63,228.59c2.64-3.82,5.51-10.94,8.3-17.65A89.76,89.76,0,0,0,1085.63,228.59Z" transform="translate(806.28 1226.72)" fill="#e29b43"/>
      <path mask="url(#mask-lines-1)" d="M1094,210.81l0-.11-.1.24Z" transform="translate(806.28 1226.72)" fill="#e29b43"/>
      <path mask="url(#mask-lines-1)" d="M1400-1169.09c-.37,1.78-.79,3.82-1.22,5.88A20.75,20.75,0,0,0,1400-1169.09Z" transform="translate(806.28 1226.72)" fill="#e29b43"/>
      <path mask="url(#mask-lines-1)" d="M1226.17-115.55l-2.82-2.08c6.2-16.08,5.54-3.47,10.56-18.56-1.2-3.66,1.32-9.79,4.1-15.73s5.82-11.72,5.53-14.7c.34.24,3.33-7,4.69-6-1.79-3.09,2.31-7.67,3.42-12.47-.1-1.91-1.28,1-2.58,1.93L1252.2-194c2.47-3.83,4.49-4.31,3,.25,5.86-13.56,22.4-53,38.88-92.81s32.81-79.92,37.8-94.95c-4,3-5.92,12.64-11.19,14.84.84-8.54,5.26-11.26,4.27-15.46,7.09-1.08,8.09-16.72,16.53-20.65l-2.55-3.35,3.63-3.2c9.91-35.51,1.31-8.42,14.14-38.59,6.41-17.78,4.6-27.81,10.29-37-.61,1.44-4.37,4.6-3.54-.27,3.55.27,2.37-12.93,6.52-14.09,1.33-4.61,7.37-19,.93-15.55,3.2-1.73,9.15-14.37,8.15-6,1.82-4.32,4.15-8.33,4.35-11.8l-3.46,5.19c5-15,11.77-21.83,11.23-32.82l-4,4.85c3.09-8.92,5.55-16.43,11.61-18.36l-2.06,9.52c5.56-14.65,8.69-23.56,10.83-36.58l-1.81,4.3c.6-8.54,7.68-33.47,14.36-58.36s13-49.72,12.4-58l-6.52,5.3,1.13-13.49c-.57,1.46,11,10.28,9.24,11.07,4.79-13.29,19.31-54.59,34-95.53s29.78-81.5,35.94-93.21c6.28-9,8,.63,8.72,1,2.83-12.54-3-6.77,1.29-16.83,1.9-2.51,3.46,1.77,3.53,3.55,1.14-4.64,4.35-8.25,2.28-9.3-3.82,5-8.75.77-13.42,1.91l5.4-13,3.48,1.78c1.23-2.88-7.37-10.72-.61-23,9.68-21.25,17.11-45.33,26.11-66.94,2.22,1.11,1.89,6.15,1.54,11.2,1.21-2.89,2.28-7.56,5-9.71-6.12,3.94.66-10.08-2.63-6.52-1.82-9.57,1.33-18.85,4.82-27.76s7.29-17.45,6.54-25.62c-4.21-2.06-39.62-22.06-76-42.2s-73.65-40.39-79-42.15c1.39-4.47,2.77-8.92,4-10-2.86.34-6.4,8.87-6.2,14.08l5.54,2.68c-.89,11.55-4.09,1.45-6.51,12.21-4.82-1-3.26-11.07-1.46-19.85-2.59,7.59-8,14.23-3.71,19-3.84,6.68-5.49-2.66-9.75,5.5-.23,6.72,2.14,16.42-2.44,22.74l-.78-.39c-4.62,8-4.6,15.25-4.56,22.32s.1,14-4.26,21.2l-1.06-2.21c-4,4.82-3.45,17.08-8.82,26.39,1.64-2.62,5.5-4.11,4.43,2.19-5.82,10.83-5.14,19.73-10.74,27.2l2.1,9.61c-5.73,20.27-17.6,71.2-29.48,122.16S1305.93-785.52,1300.79-765l-.16-1.79c-7.34,31.5-19.59,79.23-31.61,127.33S1245.2-542.87,1238.56-510c-5.57,9-8.55,23-12.12,33.13,2.72-5.4,4.2-2.76,2.87,1.71-8.86,31.55,1.38,2.77-6.15,35.15-3.74,18.83-16,63.22-28.66,107s-25.51,86.8-30.85,102.86c-.75,9.31-3.26,19.24-5.88,29.09s-5.38,19.6-6.77,28.51l-.24-2c-2,9.43-10.78,40.06-19.63,71.09S1113.37-41,1110.9-30.14l1.14-2.77c-3.57,19.22-5.58,15.79-10.36,30.31,3.22-1.07.32,15.46-1.19,21.63l-.5-.41c-2.08,9.37-5.7,31-9.67,46.26l-1.15-1c-2.13,13.15-9.41,36.8-11.82,46-3.17,10.34-7.51,23.39-11.79,37.41s-8.52,29-11.71,43.19q-4,8.54-7.81,17.11l-.44,2.73a68.09,68.09,0,0,0,4.23,5.69,51.45,51.45,0,0,0,10.37,9.86c4.13,2.78,8.8,4.49,13.7,3.4s10.14-4.94,15.36-13.29l.78.89,2.56-7.1c3.74-8.32,4-12.63,4.86-11.72l-4.57,11.58c3.55-8.42,1.83-2.3,1.14,1.13,1.47-3.52,2.92-6.93,4.33-9.65.25-1.81-.9,1.09-1.64,2.34,1.41-4.69,2.87-11.39,5.49-16.81,3.44-8.68,1.94,0,6-10.11,10.8-26.66,21.64-52.83,32.44-79.11s21.52-52.64,32-79.74c1.09-1,.49.43.15,2.08,5.77-16.5,11.7-30.9,16.82-46a17.72,17.72,0,0,1,4.88-5.71c-1.13,1,6.58-19.57,14.67-40.57,4-10.5,8.19-21.11,11.38-29.16S1225.94-115.25,1226.17-115.55Z" transform="translate(806.28 1226.72)" fill="#e29b43"/>
    </g>
  </g>
  <g class="circle">
    <path d="M1275,539.78c0,23.79-4.56,47.4-9.62,69.66-5.22,23-9.85,47-19.85,67.75-10.17,21.08-30,36.58-44.44,54.69s-28.28,37.17-46.48,51.7-35.15,33-56.23,43.15c-20.73,10-44.7,16.72-67.68,21.95-22.27,5.06-46.71-1.43-70.51-1.43s-48.12,6-70.38.89c-23-5.23-43.56-18.67-64.3-28.67A309.49,309.49,0,0,1,767,782.1c-18.19-14.53-29.9-34.6-44.43-52.8s-29.3-35-39.47-56.07c-10-20.73-26.25-40-31.47-63-5.06-22.26.25-46.65.25-70.44s-1.16-47.24,3.9-69.5c5.22-23,13.78-44.93,23.78-65.67,10.17-21.08,24.62-39.39,39.08-57.5s28.48-37.24,46.67-51.77,40.1-23.14,61.18-33.31a302.81,302.81,0,0,1,65.08-23.1c22.26-5.06,44.88-6.06,68.67-6.06s47.35-3.11,69.61,1.95c23,5.23,42.76,18.54,63.5,28.55,21.08,10.17,38.89,23.56,57,38s36,28.32,50.51,46.51,28,36.58,38.12,57.66c10,20.73,24.49,40.83,29.72,63.82C1273.73,491.64,1275,516,1275,539.78Z" transform="translate(806.28 1226.72)" fill="#fadf2d"/>
  </g>
    <g class='logo_top'>
    <path d="M737.65,548.14q9.93,0,9.92-9.51,0-3.17-6.61-8.78-9.91-8.64-11.93-11-6.62-7.35-6.62-14.69a24.3,24.3,0,0,1,10.5-20.74q9.35-6.77,22.86-6.77a67.78,67.78,0,0,1,12.44,1.65A67.85,67.85,0,0,0,780.79,480q7.76,0,7.76,17.79,0,10.18-8,10.18-5.61,0-10.71-8.24t-9.85-8.25q-10.5,0-10.5,7.62,0,4.47,11.79,10.07,16,7.48,21.71,12.52,11.79,10.21,11.79,26.19,0,17.4-11.28,28.63t-28.54,11.22q-17.68,0-28.76-8.64-12.23-9.35-12.22-26.62,0-8.64,8.92-8.64a10.47,10.47,0,0,1,6,2.16Q731.9,548.14,737.65,548.14Z" transform="translate(806.28 1226.72)" fill="#f5812e"/>
    <path d="M889.19,518.59q0,4.88.22,14.56t.21,14.56q0,13.9-12.22,26.46t-26.31,12.55q-25.44,0-35.8-9.61-10.78-9.89-10.78-34.57,0-4.72.5-14.2t.51-14.2q0-10.47-2.31-15.35a15.45,15.45,0,0,0-4.45-4.87,6,6,0,0,1-2.45-5q0-6.18,8.2-9a39.7,39.7,0,0,1,13.37-2q23.58,0,23.58,10A6.8,6.8,0,0,1,839,493.2q-3.3,2.87-4,4.45-2.44,5.73-2.45,19.22l-.14-.29q.15,13.2,2.59,17.79,3.74,6.6,16,6.6,10.35,0,14-4.31t3.66-14.92a131.54,131.54,0,0,0-.86-17.07q-1-7.46-5-9.89a6.38,6.38,0,0,1-3.6-5.88q0-11.06,22.72-11a26.7,26.7,0,0,1,10.35,1.86q5.89,2.6,5.9,7.75a6.8,6.8,0,0,1-2.45,5.31,15.5,15.5,0,0,0-3.88,4.3Q889.2,503.39,889.19,518.59Z" transform="translate(806.28 1226.72)" fill="#f5812e"/>
    <path d="M941.38,537.24q0,3.59,2.66,13.12t4.17,11.55c1,1.34,2.08,2.68,3.24,4a10.12,10.12,0,0,1,2.58,4.73,34.64,34.64,0,0,1,.43,5.16q0,6.31-4.6,8.9-3.74,2-13.37,2.44-4.46.57-19.41.57a33.11,33.11,0,0,1-11.79-2.3q-5.31-1.86-7-5.3a10.28,10.28,0,0,1-1.58-5.74v-2.73a5.83,5.83,0,0,1,1.87-3.87l3.3-3.3A246.21,246.21,0,0,0,908,534.08q1.59-11.33,2.16-20.66.87-13.62-3.88-17.5c-.86-.47-2.06-1.19-3.59-2.15A6.58,6.58,0,0,1,901,488.9q0-5.88,7.48-8.75,6-2.44,15.24-2.3,15.66.28,20.12,4.45,6.76,4.44,12.22,21.23,6,18.08,11.8,23.67a3,3,0,0,0,3.16.71q1.72-2.14,1.72-6.31a41.24,41.24,0,0,0-.43-4.88V516l-.14-.29c-.29-2.3-.63-4.73-1-7.32a24.93,24.93,0,0,0-7.91-12.48c-.86-.47-2.06-1.19-3.59-2.15a6.91,6.91,0,0,1-1.58-4.87q0-5.88,7.48-8.75,6-2.44,15.24-2.3,12.65.15,18,3a7.5,7.5,0,0,1,4.31,7,5.69,5.69,0,0,1-1.29,4.16,35,35,0,0,1-2.73,2.44,8,8,0,0,0-2.31,3.16c-1.15,2-2.3,4.06-3.45,6.16a26.9,26.9,0,0,0-2.58,11.91v1.86q.28,7.89,4.45,23.82Q999,556.6,999,565.06q0,11.19-1.87,15.5-3,6.74-12.51,6.74-10.5,0-19-13.63-2.16-3.58-11.79-25.25-6-13.62-10.93-13.62C941.91,534.8,941.38,535.61,941.38,537.24Z" transform="translate(806.28 1226.72)" fill="#f5812e"/>
    <path d="M1049.93,537.24q0,3.59,2.66,13.12t4.17,11.55q1.5,2,3.23,4a10.15,10.15,0,0,1,2.59,4.73,34.64,34.64,0,0,1,.43,5.16q0,6.31-4.6,8.9-3.73,2-13.37,2.44-4.45.57-19.41.57a33.11,33.11,0,0,1-11.79-2.3q-5.33-1.86-7-5.3a10.28,10.28,0,0,1-1.59-5.74v-2.73a5.88,5.88,0,0,1,1.87-3.87l3.31-3.3a246.21,246.21,0,0,0,6.18-30.41q1.59-11.33,2.16-20.66.85-13.62-3.88-17.5c-.86-.47-2.06-1.19-3.6-2.15a6.58,6.58,0,0,1-1.72-4.87q0-5.88,7.47-8.75,6-2.44,15.25-2.3,15.66.28,20.12,4.45,6.77,4.44,12.22,21.23,6,18.08,11.79,23.67a3,3,0,0,0,3.17.71q1.73-2.14,1.72-6.31a41.24,41.24,0,0,0-.43-4.88V516l-.14-.29c-.29-2.3-.63-4.73-1-7.32a25,25,0,0,0-7.91-12.48c-.86-.47-2.06-1.19-3.59-2.15a6.91,6.91,0,0,1-1.58-4.87q0-5.88,7.47-8.75,6-2.44,15.24-2.3,12.66.15,18,3a7.49,7.49,0,0,1,4.32,7,5.65,5.65,0,0,1-1.3,4.16,31.68,31.68,0,0,1-2.73,2.44,8,8,0,0,0-2.3,3.16c-1.15,2-2.3,4.06-3.45,6.16a26.9,26.9,0,0,0-2.59,11.91v1.86q.29,7.89,4.46,23.82,3.88,15.2,3.88,23.66,0,11.19-1.87,15.5-3,6.74-12.5,6.74-10.5,0-19-13.63-2.16-3.58-11.79-25.25-6-13.62-10.93-13.62C1050.46,534.8,1049.93,535.61,1049.93,537.24Z" transform="translate(806.28 1226.72)" fill="#f5812e"/>
    <path d="M1172,528.92q4.32,28.4,7.62,32.85c1.25,1.34,2.54,2.77,3.89,4.3a7,7,0,0,1,2,4.59q0,11.76-6,14.49Q1175,587.3,1155,587.3q-16.11,0-21.43-3.23t-5.31-12.41q0-2.14,2.58-4.73a27.09,27.09,0,0,0,3.88-4.16q1.88-3.74,4.32-17.79,2.16-12,2.73-18.5c0-.38-.72-1.63-2.16-3.73a34.19,34.19,0,0,1-4.17-7.75q-2.58-4.72-6.18-11.9a20.73,20.73,0,0,0-4.17-3.88l-4.6-3.3c-.86-.47-2.06-1.19-3.59-2.15a6.91,6.91,0,0,1-1.58-4.87q0-5.88,7.47-8.75,6-2.44,15.24-2.3,12.66.15,18,3a7.49,7.49,0,0,1,4.32,7,5.65,5.65,0,0,1-1.3,4.16,31.68,31.68,0,0,1-2.73,2.44,7.59,7.59,0,0,0-2.23,3,6.74,6.74,0,0,0-.36,4q1.73,8.89,7.62,8.89,2.16,0,5.32-5.16a34.88,34.88,0,0,1,2.45-6,10.41,10.41,0,0,0,1.29-3.44.85.85,0,0,0-.5-.72c-.34-.19-1-.62-1.94-1.29a6.58,6.58,0,0,1-1.73-4.87q0-11.06,22.72-11,17.54,0,17.54,8.89a5.5,5.5,0,0,1-1.37,4.16c-.91.86-1.77,1.63-2.59,2.3a20.55,20.55,0,0,1-4.67,2.44,35.35,35.35,0,0,0-6.68,3,20.26,20.26,0,0,0-3.67,4.16q-8.34,9-10.35,11.76-5.18,6.75-5.18,11.91Z" transform="translate(806.28 1226.72)" fill="#f5812e"/>
  </g>
  <g class='logo_bottom'>
    <path d="M874.39,533.58l-.28,16.51a49.83,49.83,0,0,1,3.26-9.5,54.63,54.63,0,0,1,4.9-8.6,48.16,48.16,0,0,1,6.14-7.2,33.18,33.18,0,0,1,7.1-5.23,19.12,19.12,0,0,1,9.36-2.64,12.27,12.27,0,0,1,7.92,2.93,20.14,20.14,0,0,1,5.62,8.64,45.71,45.71,0,0,1,2.45,14.4,54.26,54.26,0,0,1-1.78,15.41A58,58,0,0,1,913.51,572a59.65,59.65,0,0,1-8.59,11.61,61.69,61.69,0,0,1-10.75,9.12,59,59,0,0,1-12,6.2,48.09,48.09,0,0,1-12.53,2.92c-.06.33-.11.55-.14.68l-.14.57a57.6,57.6,0,0,1,10.75,6.1,79.46,79.46,0,0,1,9.45,8,99.78,99.78,0,0,1,8.36,9.41q3.89,5,7.34,10.27,3.16,5,6,9.32a75.49,75.49,0,0,0,5.71,7.58,28.6,28.6,0,0,0,5.66,5.14,11.33,11.33,0,0,0,6,2,12.45,12.45,0,0,0,6.62-1.92,35.31,35.31,0,0,0,7.73-6.52c.19-.26.43-.2.72.19s.21.7-.24,1a37.29,37.29,0,0,1-8.93,7.44,15.91,15.91,0,0,1-7.78,2.21,13.58,13.58,0,0,1-7-2.12,29.93,29.93,0,0,1-6.53-5.56,73.7,73.7,0,0,1-6.29-8.12q-3.12-4.6-6.38-9.69a114.58,114.58,0,0,0-14.07-17.81,74.7,74.7,0,0,0-17.9-13.68q-1,6.15-2.59,13a92.32,92.32,0,0,1-4.08,12.91A50.09,50.09,0,0,1,856,643a19.87,19.87,0,0,1-8.06,6.77,14.42,14.42,0,0,1-5.71,1.29,9.52,9.52,0,0,1-5.28-1.39,11,11,0,0,1-3.94-4.51,19.27,19.27,0,0,1-1.78-8.06,24.05,24.05,0,0,1,1.44-9.56,22.19,22.19,0,0,1,4.42-7.15,21.87,21.87,0,0,1,6.43-4.75,28.51,28.51,0,0,1,7.39-2.45c.32-.12.55.05.68.53a.66.66,0,0,1-.48.91,26.85,26.85,0,0,0-6.77,2.31,21.38,21.38,0,0,0-5.95,4.36,20.91,20.91,0,0,0-4.23,6.58,22.36,22.36,0,0,0-1.49,8.93,16.67,16.67,0,0,0,1.3,6.53,8.94,8.94,0,0,0,3.12,3.84,7,7,0,0,0,4.37,1.1,11.31,11.31,0,0,0,5-1.68,21.24,21.24,0,0,0,7-7.25,52.91,52.91,0,0,0,5-10.61,96.84,96.84,0,0,0,3.31-12.19q1.29-6.33,2.26-12.09c-1.09-.45-2.2-.87-3.32-1.25a15.72,15.72,0,0,0-3.5-.77c-.13,0-.21-.1-.24-.29a1.6,1.6,0,0,1,0-.67,2,2,0,0,1,.29-.67c.12-.19.25-.29.38-.29,1.41,0,2.66,0,3.74,0s2.21-.11,3.36-.24A304.18,304.18,0,0,0,868,568.81q.76-15.75,1-31.87Zm-.76,25.15c-.07,1.54-.21,3.92-.44,7.15s-.51,6.79-.86,10.66-.72,7.86-1.1,12-.81,7.81-1.25,11.14a41.79,41.79,0,0,0,16.85-5.86,56.26,56.26,0,0,0,14.59-12.62,62.6,62.6,0,0,0,10.17-17.62,54,54,0,0,0,3.51-20.93,50.3,50.3,0,0,0-1.59-12,19.18,19.18,0,0,0-3.88-7.77,9.82,9.82,0,0,0-5.86-3.32,12.31,12.31,0,0,0-7.39,1.49,29.45,29.45,0,0,0-8.21,6.15,49.13,49.13,0,0,0-6.91,9.12,58.77,58.77,0,0,0-5,10.89A50.13,50.13,0,0,0,873.63,558.73Z" transform="translate(806.28 1226.72)" fill="#010101"/>
    <path d="M923.45,598.38a2.55,2.55,0,0,1,1.25-2.07,2.49,2.49,0,0,1,2,0,3.61,3.61,0,0,1,1.72,1.44,3.69,3.69,0,0,1,.63,2.4c-.19.89-.4,2.08-.63,3.55s-.41,3.13-.57,5-.29,3.83-.39,5.9-.14,4.18-.14,6.29a41,41,0,0,0,.29,4.47,38.07,38.07,0,0,0,.91,5,26,26,0,0,0,1.58,4.56,6.5,6.5,0,0,0,2.5,3,4.45,4.45,0,0,0,3.6.34,11.54,11.54,0,0,0,4.75-3.46,65.88,65.88,0,0,0,5.23-6.19q2.64-3.5,5-7.3t4.36-7.68q2-3.89,3.46-7.34c.19-.45.48-.53.86-.24s.52.56.39.82q-1.44,3.45-3.51,7.44t-4.41,8q-2.35,4-5,7.64A53.37,53.37,0,0,1,942,636.2a19.17,19.17,0,0,1-6.34,4.71,6.89,6.89,0,0,1-4.94.24,7.85,7.85,0,0,1-3.7-3.08,21.73,21.73,0,0,1-2.54-5.18,37.52,37.52,0,0,1-1.54-6.14q-.52-3.22-.72-6c-.13-2.31-.17-4.61-.14-6.92s.11-4.44.24-6.43.3-3.76.53-5.33S923.26,599.28,923.45,598.38Zm4.61-15.94a3.08,3.08,0,0,1,2.25.91,3.58,3.58,0,0,1,.92,2.64,3.36,3.36,0,0,1-3.36,3.46,3.49,3.49,0,0,1-2.4-1.1,3.7,3.7,0,0,1-1-2.64,2.88,2.88,0,0,1,1-2.5A4.17,4.17,0,0,1,928.06,582.44Z" transform="translate(806.28 1226.72)" fill="#010101"/>
    <path d="M959,605.67a1.78,1.78,0,0,1,1.06-1.34,3.35,3.35,0,0,1,3.45.48,1.37,1.37,0,0,1,.48,1.44q-1.35,8.36-1.82,12.72a36.52,36.52,0,0,0-.34,5.9c.1,1,.35,1.3.77.82a12.62,12.62,0,0,0,1.49-2.45,66,66,0,0,0,2.83-6.29c.86-2.2,1.73-4.41,2.59-6.62s1.78-4.35,2.74-6.43a32,32,0,0,1,3.36-5.71c.57-.77,1.21-1.55,1.92-2.36a10.24,10.24,0,0,1,2.21-1.92,4.82,4.82,0,0,1,2.44-.76,4.42,4.42,0,0,1,2.74,1,7.71,7.71,0,0,1,2.59,4.61,36.9,36.9,0,0,1,.87,7.44c.06,2.79,0,5.7-.2,8.74s-.32,5.81-.38,8.3a28.24,28.24,0,0,0,.67,7c.45,1.66,1.09,2.72,1.92,3.17a3.1,3.1,0,0,0,3-.29,19.13,19.13,0,0,0,4.08-3.26,56,56,0,0,0,4.12-4.9c1.41-1.85,2.75-3.82,4-5.9s2.46-4.23,3.55-6.44a69.15,69.15,0,0,0,2.78-6.38c.26-.45.58-.58,1-.38s.48.51.29,1a70.34,70.34,0,0,1-2.78,6.52c-1.09,2.25-2.29,4.45-3.6,6.63s-2.69,4.24-4.13,6.19a55.16,55.16,0,0,1-4.27,5.14,21.12,21.12,0,0,1-2.6,2.35,13.63,13.63,0,0,1-3,1.77,7.23,7.23,0,0,1-3.26.58,6.77,6.77,0,0,1-3.41-1.25c-1.22-1-2.08-2.65-2.59-5.09a45.92,45.92,0,0,1-.92-8q-.14-4.36.1-8.69t.43-7a41.68,41.68,0,0,0-.14-5.23,11.52,11.52,0,0,0-1-4.13,1.92,1.92,0,0,0-2.11-1.25q-1.35.24-3.46,3.41a41.24,41.24,0,0,0-3.17,5.76c-1,2.11-1.89,4.31-2.78,6.58s-1.78,4.53-2.64,6.77-1.78,4.32-2.74,6.24c-.32.57-.67,1.26-1.05,2.06a20.65,20.65,0,0,1-1.3,2.3,8.93,8.93,0,0,1-1.53,1.83,2.55,2.55,0,0,1-1.68.72c-.9,0-1.55-.56-2-1.68a13.55,13.55,0,0,1-.72-4.23,47.44,47.44,0,0,1,.14-5.61q.24-3.07.63-5.86c.25-1.85.52-3.52.81-5S958.91,606.19,959,605.67Z" transform="translate(806.28 1226.72)" fill="#010101"/>
    <path d="M1036.73,599.91l1-4.32a2.81,2.81,0,0,1,1.06-2.11,2.11,2.11,0,0,1,1.77-.33,3.55,3.55,0,0,1,1.68,1.05,2.79,2.79,0,0,1,.77,2q-1,11.33-1.92,22.46t-2.59,22.47a104.51,104.51,0,0,0,9.45-5.14,46.9,46.9,0,0,0,8.45-6.67,52.76,52.76,0,0,0,7.49-9.5,78.54,78.54,0,0,0,6.57-13.54c.26-.45.56-.58.92-.38a.74.74,0,0,1,.33,1,85.67,85.67,0,0,1-7.05,14.11,56.29,56.29,0,0,1-7.87,9.84,47.39,47.39,0,0,1-8.84,6.86,103.73,103.73,0,0,1-9.84,5.19q-.57,5-1.58,11.28t-2.5,12.76q-1.48,6.48-3.45,12.58a60.47,60.47,0,0,1-4.47,10.61q-3.07,5.57-6.33,7.87a9.89,9.89,0,0,1-6.15,2.16,7.85,7.85,0,0,1-5.23-2.5,15.66,15.66,0,0,1-3.65-6.19,28.69,28.69,0,0,1-1.34-8.88,34.79,34.79,0,0,1,1.68-10.61,35.57,35.57,0,0,1,4.66-9.69,47.22,47.22,0,0,1,6.76-7.92,55.16,55.16,0,0,1,8-6.24,75.27,75.27,0,0,1,8.3-4.66q1.35-10.46,2.45-20.78t2.06-21c-.7,2.11-1.53,4.31-2.49,6.58a71.64,71.64,0,0,1-3.27,6.72,72.38,72.38,0,0,1-3.88,6.29,37.47,37.47,0,0,1-4.28,5.18,13.52,13.52,0,0,1-5.51,3.65,6.73,6.73,0,0,1-4.71-.15,7.38,7.38,0,0,1-3.41-3.31,13.67,13.67,0,0,1-1.53-6,24.73,24.73,0,0,1,.72-8,23.85,23.85,0,0,1,3-7,21,21,0,0,1,4.8-5.28,18.17,18.17,0,0,1,6-3.12,14.71,14.71,0,0,1,6.81-.34A18.64,18.64,0,0,1,1036.73,599.91Zm-4.42,45.51a73.58,73.58,0,0,0-7.73,4.41,54,54,0,0,0-7.58,6,45.16,45.16,0,0,0-6.48,7.73,35.06,35.06,0,0,0-4.42,9.51,30.87,30.87,0,0,0-1.29,8.44,31.19,31.19,0,0,0,.77,7.64,15.74,15.74,0,0,0,2.4,5.61,5.15,5.15,0,0,0,3.74,2.4c1.44.13,3-.54,4.75-2s3.49-4,5.28-7.68a75.25,75.25,0,0,0,3.89-9.75q1.77-5.41,3.07-11.09t2.21-11.18Q1031.84,649.93,1032.31,645.42Zm3.65-44.35q-4.61-3.27-8.74-2.5a13.32,13.32,0,0,0-7.24,4,22,22,0,0,0-4.85,8.12,25.45,25.45,0,0,0-1.44,10,14.12,14.12,0,0,0,.77,4.27,5.67,5.67,0,0,0,1.82,2.74,3.09,3.09,0,0,0,2.83.38,9.12,9.12,0,0,0,3.8-2.78,45.85,45.85,0,0,0,4-5.14,63.9,63.9,0,0,0,3.6-6,70.55,70.55,0,0,0,3-6.48Q1034.91,604.32,1036,601.07Z" transform="translate(806.28 1226.72)" fill="#010101"/>
    <path d="M1076.47,593.29a23.6,23.6,0,0,1-1.1,5q-.82,2.4-1.59,4.8a57.31,57.31,0,0,0,4.9,10.32,93.81,93.81,0,0,1,5.28,10.13c2.17-.64,4.4-1.36,6.67-2.16a35.29,35.29,0,0,0,6.58-3.12,26.79,26.79,0,0,0,5.81-4.8,22.07,22.07,0,0,0,4.27-7.2c.32-.45.65-.58,1-.38s.43.51.24,1a25.82,25.82,0,0,1-4.71,7.39,29.52,29.52,0,0,1-6,5,35.86,35.86,0,0,1-6.72,3.26c-2.3.84-4.51,1.54-6.62,2.12a38.73,38.73,0,0,1,1.34,6.52,29.13,29.13,0,0,1,.1,6.24,19.75,19.75,0,0,1-1.34,5.57,14.5,14.5,0,0,1-2.88,4.51,11.73,11.73,0,0,1-4.61,3,8.42,8.42,0,0,1-5,.29,7.39,7.39,0,0,1-4.13-3,12.7,12.7,0,0,1-1.92-6.91,15.75,15.75,0,0,1,1-6.86,12.87,12.87,0,0,1,3.07-4.52,15.21,15.21,0,0,1,4.22-2.78,46.72,46.72,0,0,1,4.42-1.68c-1.09-2.5-2.3-5-3.65-7.49s-2.64-5-3.89-7.39a67.29,67.29,0,0,1-3.21-7.3,24.53,24.53,0,0,1-1.54-7.2q-.29-4.89,1.49-7.63t3.84-3.17a3.63,3.63,0,0,1,3.7,1.64C1076.5,587.8,1076.86,590.09,1076.47,593.29Zm2.79,32.83a35.19,35.19,0,0,0-4.71,1.63,12.94,12.94,0,0,0-3.89,2.6,11.21,11.21,0,0,0-2.64,4.17,16.79,16.79,0,0,0-.86,6.29c.06,3,.69,5.17,1.87,6.48a4.5,4.5,0,0,0,4,1.68,7.26,7.26,0,0,0,4.42-2.78,14.05,14.05,0,0,0,2.93-6.82,25.07,25.07,0,0,0,.24-6.72A29.12,29.12,0,0,0,1079.26,626.12ZM1073,601.35a35.16,35.16,0,0,1,1.15-4.17A17.52,17.52,0,0,0,1075,593a10.28,10.28,0,0,0,0-3.65c-.22-.89-.52-1.44-.91-1.63s-.78,0-1.2.63a8.78,8.78,0,0,0-1,3.21,13.88,13.88,0,0,0-.09,4.9A25.26,25.26,0,0,0,1073,601.35Z" transform="translate(806.28 1226.72)" fill="#010101"/>
  </g>
    <g id="mask-lines">
        <line class="mask-lines" id="mask-line-20" x1="1755.55" y1="17.61" x2="1764.93" y2="1444.55" fill="none" stroke="#fff" stroke-miterlimit="10" stroke-width="215"/>
        <line class="mask-lines" id="mask-line-19" x1="1215.46" y1="106.73" x2="1665.33" y2="1460.93" fill="none" stroke="#fff" stroke-miterlimit="10" stroke-width="215"/>
        <line class="mask-lines" id="mask-line-18" x1="729.34" y1="358.38" x2="1575.67" y2="1507.28" fill="none" stroke="#fff" stroke-miterlimit="10" stroke-width="215"/>
        <line class="mask-lines" id="mask-line-17" x1="344.78" y1="747.93" x2="1504.71" y2="1579.08" fill="none" stroke="#fff" stroke-miterlimit="10" stroke-width="215"/>
        <line class="mask-lines" id="mask-line-16" x1="99.42" y1="1237.25" x2="1459.42" y2="1669.28" fill="none" stroke="#fff" stroke-miterlimit="10" stroke-width="215"/>
        <line class="mask-lines" id="mask-line-15" x1="17.28" y1="1778.45" x2="1444.22" y2="1769.07" fill="none" stroke="#fff" stroke-miterlimit="10" stroke-width="215"/>
        <line class="mask-lines" id="mask-line-14" x1="106.39" y1="2318.54" x2="1460.59" y2="1868.67" fill="none" stroke="#fff" stroke-miterlimit="10" stroke-width="215"/>
        <line class="mask-lines" id="mask-line-13" x1="358.04" y1="2804.66" x2="1506.95" y2="1958.33" fill="none" stroke="#fff" stroke-miterlimit="10" stroke-width="215"/>
        <line class="mask-lines" id="mask-line-12" x1="747.6" y1="3189.22" x2="1578.74" y2="2029.29" fill="none" stroke="#fff" stroke-miterlimit="10" stroke-width="215"/>
        <line class="mask-lines" id="mask-line-11" x1="1236.92" y1="3434.58" x2="1668.95" y2="2074.58" fill="none" stroke="#fff" stroke-miterlimit="10" stroke-width="215"/>
        <line class="mask-lines" id="mask-line-10" x1="1778.11" y1="3516.72" x2="1768.73" y2="2089.78" fill="none" stroke="#fff" stroke-miterlimit="10" stroke-width="215"/>
        <line class="mask-lines" id="mask-line-9" x1="2318.2" y1="3427.61" x2="1868.33" y2="2073.41" fill="none" stroke="#fff" stroke-miterlimit="10" stroke-width="215"/>
        <line class="mask-lines" id="mask-line-8" x1="2804.32" y1="3175.96" x2="1958" y2="2027.05" fill="none" stroke="#fff" stroke-miterlimit="10" stroke-width="215"/>
        <line class="mask-lines" id="mask-line-7" x1="3188.88" y1="2786.4" x2="2028.95" y2="1955.26" fill="none" stroke="#fff" stroke-miterlimit="10" stroke-width="215"/>
        <line class="mask-lines" id="mask-line-6" x1="3434.24" y1="2297.08" x2="2074.25" y2="1865.05" fill="none" stroke="#fff" stroke-miterlimit="10" stroke-width="215"/>
        <line class="mask-lines" id="mask-line-5" x1="3516.39" y1="1755.89" x2="2089.45" y2="1765.27" fill="none" stroke="#fff" stroke-miterlimit="10" stroke-width="215"/>
        <line class="mask-lines" id="mask-line-4" x1="3427.27" y1="1215.8" x2="2073.07" y2="1665.67" fill="none" stroke="#fff" stroke-miterlimit="10" stroke-width="215"/>
        <line class="mask-lines" id="mask-line-3" x1="3175.62" y1="729.68" x2="2026.72" y2="1576" fill="none" stroke="#fff" stroke-miterlimit="10" stroke-width="215"/>
        <line class="mask-lines" id="mask-line-2" x1="2786.07" y1="345.12" x2="1954.92" y2="1505.05" fill="none" stroke="#fff" stroke-miterlimit="10" stroke-width="215"/>
        <line class="mask-lines" id="mask-line-1" x1="2296.75" y1="99.76" x2="1864.72" y2="1459.75" fill="none" stroke="#fff" stroke-miterlimit="10" stroke-width="215"/>
    </g>
</svg>
