<svg id="Layer_2" data-name="Layer 2" xmlns="http://www.w3.org/2000/svg" viewBox="0 0 42.8 42.8">
  <path id="instagramIcon" d="M48.1,26.3c0,4.3,0,7.2-.1,8.8-.2,3.9-1.3,6.9-3.5,9a13.41,13.41,0,0,1-9,3.5c-1.6.1-4.6.1-8.8.1s-7.2,0-8.8-.1c-3.9-.2-6.9-1.3-9-3.5s-3.3-5.1-3.5-9c-.1-1.6-.1-4.6-.1-8.8s0-7.2.1-8.8c.2-3.9,1.3-6.9,3.5-9S14,5.2,17.9,5c1.6-.1,4.6-.1,8.8-.1s7.2,0,8.8.1c3.9.2,6.9,1.3,9,3.5a13.41,13.41,0,0,1,3.5,9C48,19.1,48.1,22,48.1,26.3ZM28.8,8.7H21.7c-.7,0-1.6,0-2.7.1a12.31,12.31,0,0,0-2.9.3,8.3,8.3,0,0,0-2,.5,9.63,9.63,0,0,0-2.5,1.6A7.16,7.16,0,0,0,10,13.7a8.3,8.3,0,0,0-.5,2c-.1.8-.2,1.7-.3,2.9s-.1,2-.1,2.7v10c0,.7,0,1.6.1,2.7a12.31,12.31,0,0,0,.3,2.9,19.27,19.27,0,0,0,.5,2,9.63,9.63,0,0,0,1.6,2.5A7.16,7.16,0,0,0,14.1,43a8.3,8.3,0,0,0,2,.5c.8.1,1.7.2,2.9.3s2,.1,2.7.1h10c.7,0,1.6,0,2.7-.1a12.31,12.31,0,0,0,2.9-.3,8.3,8.3,0,0,0,2-.5,9.63,9.63,0,0,0,2.5-1.6,7.16,7.16,0,0,0,1.6-2.5,8.3,8.3,0,0,0,.5-2c.1-.8.2-1.7.3-2.9s.1-2,.1-2.7v-10c0-.7,0-1.6-.1-2.7a12.31,12.31,0,0,0-.3-2.9,8.3,8.3,0,0,0-.5-2,9.63,9.63,0,0,0-1.6-2.5,7.16,7.16,0,0,0-2.5-1.6,8.3,8.3,0,0,0-2-.5c-.8-.1-1.7-.2-2.9-.3s-2-.1-2.7-.1Zm5.6,9.8a10.64,10.64,0,0,1,3.2,7.8,10.8,10.8,0,0,1-3.2,7.8,10.64,10.64,0,0,1-7.8,3.2,10.8,10.8,0,0,1-7.8-3.2,10.64,10.64,0,0,1-3.2-7.8,10.8,10.8,0,0,1,3.2-7.8,10.64,10.64,0,0,1,7.8-3.2A10.26,10.26,0,0,1,34.4,18.5ZM31.7,31.3a6.88,6.88,0,0,0,2.1-5,7.11,7.11,0,0,0-2.1-5.1,7.24,7.24,0,0,0-10.2,0,6.94,6.94,0,0,0-2.1,5.1,6.57,6.57,0,0,0,2.1,5,7.24,7.24,0,0,0,10.2,0ZM39.9,13a2.42,2.42,0,1,1-1.8-.8A2.5,2.5,0,0,1,39.9,13Z" transform="translate(-5.3 -4.9)"/>
</svg>
