<svg xmlns="http://www.w3.org/2000/svg" viewBox="0 0 512 384">
  <path d="M448,64H64A64,64,0,0,0,0,128V384a64,64,0,0,0,64,64H448a64,64,0,0,0,64-64V128A64,64,0,0,0,448,64ZM342.66,234.78,478.12,118.69A30.78,30.78,0,0,1,480,128V384c0,2.22-.84,4.19-1.28,6.28ZM448,96c2.12,0,4,.81,6,1.22L256,266.94,58,97.22c2-.41,3.88-1.22,6-1.22ZM33.27,390.25c-.44-2.09-1.27-4-1.27-6.25V128a30.79,30.79,0,0,1,1.89-9.31L169.31,234.75ZM64,416a31,31,0,0,1-9.12-1.84L193.62,255.59l52,44.53a15.92,15.92,0,0,0,20.82,0l52-44.54L457.12,414.16A30.69,30.69,0,0,1,448,416Z" transform="translate(0 -64)"/>
</svg>
