<svg width="61" height="50" viewBox="0 0 61 50" fill="none" xmlns="http://www.w3.org/2000/svg">
    <path d="M16.6419 25.8845L16.6883 25.6179C17.4073 25.6179 16.8979 25.9222 17.5626 25.8567C17.8279 25.4801 18.6663 25.8956 18.8972 25.6956C18.8972 25.7256 19.2169 25.7367 19.197 25.8545C19.2965 25.6501 19.5313 25.8067 19.737 25.7545C19.8112 25.6979 19.6826 25.6934 19.6268 25.6323L20.0965 25.5601C20.2809 25.6257 20.326 25.7456 20.1257 25.7678C21.3555 25.8412 27.2578 26.0378 28.5818 25.9356C28.412 25.7812 28.0034 25.8856 27.8468 25.6423C28.1971 25.5068 28.3629 25.6901 28.5101 25.5468C28.6428 25.9078 29.2796 25.6334 29.5449 26L29.6458 25.7945L29.8196 25.92C31.3598 25.7067 30.1711 25.8156 31.5362 25.8645C32.3322 25.8334 32.7024 25.549 33.1415 25.6534C33.0765 25.6534 32.9014 25.5257 33.107 25.4735C33.1415 25.6534 33.6509 25.3446 33.7504 25.5268C33.9508 25.5035 34.6008 25.5268 34.3806 25.2813C34.4907 25.4035 35.0705 25.4535 34.7255 25.5601C34.9205 25.5679 35.1103 25.6034 35.2562 25.549L35.0055 25.4813C35.6688 25.4457 36.0257 25.6357 36.4555 25.4135L36.2114 25.3157C36.6094 25.3002 36.9357 25.2813 37.091 25.5246L36.6863 25.599C37.3404 25.599 37.7357 25.5768 38.2783 25.4479L38.0873 25.4402C38.7824 25.1969 42.4175 24.9958 43.0583 24.6926L42.7637 24.5037L43.3143 24.3449C43.2493 24.3449 43.049 24.9581 42.9933 24.9003C44.174 24.8825 50.3124 24.7359 51.4016 24.8636C51.8421 24.9681 51.4812 25.1636 51.4759 25.1969C52.0066 25.1258 51.7067 24.9958 52.1618 25.0125C52.2865 25.0469 52.1366 25.1602 52.0663 25.1869C52.2653 25.1647 52.451 25.2302 52.4643 25.1425C52.2149 25.0736 52.321 24.8403 52.2149 24.6881L52.7999 24.7081L52.7747 24.8559C52.9074 24.8559 53.105 24.4515 53.6808 24.5315C54.6506 24.5948 55.704 24.5437 56.6791 24.5771C56.6645 24.6659 56.4588 24.7181 56.2545 24.7703C56.3872 24.7703 56.5835 24.7526 56.7043 24.8159C56.4694 24.6593 57.1142 24.7115 56.9298 24.6459C57.6435 24.2849 58.5682 24.6148 59.1984 24.3693C59.2541 24.0439 60.5489 18.7876 60.5489 18.401C60.7012 18.3958 60.8535 18.4112 61 18.4465C60.9482 18.3555 60.5635 18.3121 60.3592 18.3643L60.3247 18.571C59.8537 18.6443 60.2146 18.4488 59.7542 18.4599C59.7304 18.291 60.1522 18.2544 60.525 18.2377C60.1894 18.2177 59.8617 18.0944 59.7198 18.2799C59.404 18.2088 59.7542 18.0722 59.3748 18C59.1095 18.05 58.75 18.2155 58.4462 18.1111V18.0811C57.6913 17.9067 57.292 18.3377 56.6021 18.1655L56.6764 18.1089C56.4323 18.01 55.952 18.1422 55.5129 18.0378C55.6376 18.0722 55.7477 18.1944 55.4824 18.2144C54.977 18.1033 54.632 18.2144 54.2632 18.0822L53.9077 18.2488C52.1472 18.2199 45.1942 18.4543 43.4258 18.481L43.4947 18.4543C40.8016 18.5376 35.2695 18.5243 32.4835 18.7531C32.0523 18.5898 31.458 18.6276 31.0082 18.5821C31.259 18.6498 31.1727 18.7665 30.9777 18.7598C29.6086 18.7409 30.8862 18.8709 29.5012 18.942C27.9092 19.0941 21.8065 18.9209 20.391 18.782C19.6295 19.023 18.6809 18.8409 17.9367 18.9931L18.011 18.9364C17.2137 19.0264 12.6911 18.8042 11.7624 18.8864L11.8871 18.9209C11.0765 19.0708 11.1867 18.8098 10.5485 18.7254C10.6321 18.9953 9.93694 19.1486 9.67293 19.1697L9.68222 19.1108C9.28422 19.1563 8.37812 19.3907 7.71877 19.4274L7.74398 19.2796C7.19341 19.4385 6.15199 19.3718 5.76328 19.3907C4.85452 19.3307 3.45887 19.0719 2.25029 19.2663L1.46889 18.8453L1.35479 18.8864C1.35479 18.8864 0.0971232 23.9739 1.69309 25.0569L1.66789 25.2047L1.98363 25.1858C2.36305 25.258 2.53817 25.0869 2.51429 25.2347L1.99292 25.218C2.37367 25.2602 2.10834 25.338 1.9624 25.4224C2.11292 25.4297 2.26133 25.4555 2.40285 25.499C2.47582 25.4402 2.34315 25.4402 2.28876 25.4046C2.49307 25.3524 2.7783 25.2147 3.02771 25.2824C3.41775 25.2958 3.05292 25.5212 3.50663 25.5368C5.90523 25.6479 8.22953 25.8223 10.6547 25.7889C10.7104 25.85 10.644 25.8478 10.5737 25.8756C11.3047 25.8112 11.9535 25.8345 12.6194 25.7645C12.7428 25.8094 12.8446 25.8877 12.9087 25.9867C12.7985 25.8645 16.5822 25.8534 16.6419 25.8845Z" fill="black"/>
    <path d="M16.4101 37.8845L16.4559 37.6179C17.1644 37.6179 16.6624 37.9222 17.3173 37.8567C17.5787 37.4801 18.4048 37.8956 18.6323 37.6956C18.6323 37.7256 18.9473 37.7367 18.9277 37.8545C19.0257 37.6501 19.2571 37.8067 19.4597 37.7545C19.5329 37.6979 19.4061 37.6934 19.3512 37.6323L19.8139 37.5601C19.9956 37.6257 20.0401 37.7456 19.8427 37.7678C21.0544 37.8412 26.8699 38.0378 28.1745 37.9356C28.0071 37.7812 27.6045 37.8856 27.4503 37.6423C27.7954 37.5068 27.9588 37.6901 28.1039 37.5468C28.2346 37.9078 28.862 37.6334 29.1234 38L29.2228 37.7945L29.394 37.92C30.9116 37.7067 29.7404 37.8156 31.0855 37.8645C31.8698 37.8334 32.2345 37.549 32.6671 37.6534C32.6031 37.6534 32.4305 37.5257 32.6331 37.4735C32.6671 37.6534 33.1691 37.3446 33.2671 37.5268C33.4645 37.5035 34.105 37.5268 33.888 37.2813C33.9965 37.4035 34.5677 37.4535 34.2279 37.5601C34.42 37.5679 34.6069 37.6034 34.7507 37.549L34.5037 37.4813C35.1572 37.4457 35.5089 37.6357 35.9324 37.4135L35.6919 37.3157C36.084 37.3002 36.4056 37.2813 36.5585 37.5246L36.1598 37.599C36.8042 37.599 37.1938 37.5768 37.7284 37.4479L37.5402 37.4402C38.2251 37.1969 41.8067 36.9958 42.4381 36.6926L42.1479 36.5037L42.6903 36.3449C42.6263 36.3449 42.4289 36.9581 42.374 36.9003C43.5374 36.8825 49.5855 36.7359 50.6587 36.8636C51.0927 36.9681 50.7371 37.1636 50.7319 37.1969C51.2548 37.1258 50.9593 36.9958 51.4077 37.0125C51.5306 37.0469 51.3829 37.1602 51.3136 37.1869C51.5097 37.1647 51.6927 37.2302 51.7057 37.1425C51.46 37.0736 51.5646 36.8403 51.46 36.6881L52.0364 36.7081L52.0116 36.8559C52.1423 36.8559 52.3371 36.4515 52.9044 36.5315C53.8599 36.5948 54.8978 36.5437 55.8585 36.5771C55.8442 36.6659 55.6415 36.7181 55.4402 36.7703C55.571 36.7703 55.7644 36.7526 55.8834 36.8159C55.652 36.6593 56.2873 36.7115 56.1056 36.6459C56.8088 36.2849 57.7199 36.6148 58.3408 36.3693C58.3957 36.0439 59.6715 30.7876 59.6715 30.401C59.8215 30.3958 59.9716 30.4112 60.1159 30.4465C60.0649 30.3555 59.6859 30.3121 59.4846 30.3643L59.4506 30.571C58.9865 30.6443 59.3421 30.4488 58.8885 30.4599C58.865 30.291 59.2806 30.2544 59.648 30.2377C59.3172 30.2177 58.9944 30.0944 58.8545 30.2799C58.5434 30.2088 58.8885 30.0722 58.5147 30C58.2532 30.05 57.899 30.2155 57.5997 30.1111V30.0811C56.8559 29.9067 56.4624 30.3377 55.7827 30.1655L55.8559 30.1089C55.6154 30.01 55.1422 30.1422 54.7096 30.0378C54.8324 30.0722 54.9409 30.1944 54.6795 30.2144C54.1815 30.1033 53.8416 30.2144 53.4782 30.0822L53.1279 30.2488C51.3933 30.2199 44.5426 30.4543 42.8001 30.481L42.8681 30.4543C40.2146 30.5376 34.7638 30.5243 32.0188 30.7531C31.594 30.5898 31.0084 30.6276 30.5652 30.5821C30.8123 30.6498 30.7273 30.7665 30.5352 30.7598C29.1862 30.7409 30.445 30.8709 29.0803 30.942C27.5117 31.0941 21.4989 30.9209 20.1041 30.782C19.3538 31.023 18.4192 30.8409 17.6859 30.9931L17.7591 30.9364C16.9735 31.0264 12.5174 30.8042 11.6024 30.8864L11.7253 30.9209C10.9266 31.0708 11.0351 30.8098 10.4064 30.7254C10.4888 30.9953 9.80381 31.1486 9.54369 31.1697L9.55284 31.1108C9.16069 31.1563 8.26791 31.3907 7.61826 31.4274L7.64309 31.2796C7.10063 31.4385 6.07452 31.3718 5.69152 31.3907C4.79613 31.3307 3.42101 31.0719 2.2302 31.2663L1.46029 30.8453L1.34787 30.8864C1.34787 30.8864 0.108696 35.9739 1.68119 37.0569L1.65636 37.2047L1.96746 37.1858C2.3413 37.258 2.51385 37.0869 2.49032 37.2347L1.97661 37.218C2.35176 37.2602 2.09033 37.338 1.94654 37.4224C2.09485 37.4297 2.24108 37.4555 2.38052 37.499C2.45241 37.4402 2.3217 37.4402 2.2681 37.4046C2.4694 37.3524 2.75044 37.2147 2.99618 37.2824C3.38049 37.2958 3.02102 37.5212 3.46806 37.5368C5.83139 37.6479 8.12151 37.8223 10.511 37.7889C10.5659 37.85 10.5005 37.8478 10.4312 37.8756C11.1515 37.8112 11.7907 37.8345 12.4469 37.7645C12.5684 37.8094 12.6687 37.8877 12.7318 37.9867C12.6233 37.8645 16.3513 37.8534 16.4101 37.8845Z" fill="black"/>
    <path d="M15.7578 49.8845L15.8043 49.6179C16.5233 49.6179 16.0139 49.9222 16.6785 49.8567C16.9439 49.4801 17.7823 49.8956 18.0131 49.6956C18.0131 49.7256 18.3329 49.7367 18.313 49.8545C18.4125 49.6501 18.6473 49.8067 18.8529 49.7545C18.9272 49.6979 18.7985 49.6934 18.7428 49.6323L19.2124 49.5601C19.3969 49.6257 19.442 49.7456 19.2416 49.7678C20.4714 49.8412 26.3737 50.0378 27.6977 49.9356C27.5279 49.7812 27.1193 49.8856 26.9628 49.6423C27.313 49.5068 27.4788 49.6901 27.6261 49.5468C27.7588 49.9078 28.3956 49.6334 28.6609 50L28.7617 49.7945L28.9355 49.92C30.4758 49.7067 29.2871 49.8156 30.6522 49.8645C31.4482 49.8334 31.8183 49.549 32.2575 49.6534C32.1925 49.6534 32.0173 49.5257 32.223 49.4735C32.2575 49.6534 32.7669 49.3446 32.8664 49.5268C33.0667 49.5035 33.7168 49.5268 33.4966 49.2813C33.6067 49.4035 34.1864 49.4535 33.8415 49.5601C34.0365 49.5679 34.2262 49.6034 34.3722 49.549L34.1214 49.4813C34.7848 49.4457 35.1416 49.6357 35.5715 49.4135L35.3274 49.3157C35.7254 49.3002 36.0517 49.2813 36.2069 49.5246L35.8023 49.599C36.4563 49.599 36.8517 49.5768 37.3943 49.4479L37.2032 49.4402C37.8984 49.1969 41.5335 48.9958 42.1742 48.6926L41.8797 48.5037L42.4303 48.3449C42.3653 48.3449 42.1649 48.9581 42.1092 48.9003C43.29 48.8825 49.4284 48.7359 50.5176 48.8636C50.958 48.9681 50.5972 49.1636 50.5919 49.1969C51.1225 49.1258 50.8227 48.9958 51.2778 49.0125C51.4025 49.0469 51.2525 49.1602 51.1822 49.1869C51.3812 49.1647 51.567 49.2302 51.5802 49.1425C51.3308 49.0736 51.437 48.8403 51.3308 48.6881L51.9159 48.7081L51.8907 48.8559C52.0233 48.8559 52.221 48.4515 52.7968 48.5315C53.7666 48.5948 54.8199 48.5437 55.795 48.5771C55.7804 48.6659 55.5748 48.7181 55.3705 48.7703C55.5032 48.7703 55.6995 48.7526 55.8202 48.8159C55.5854 48.6593 56.2302 48.7115 56.0458 48.6459C56.7595 48.2849 57.6842 48.6148 58.3143 48.3693C58.3701 48.0439 59.6649 42.7876 59.6649 42.401C59.8172 42.3958 59.9695 42.4112 60.1159 42.4465C60.0642 42.3555 59.6795 42.3121 59.4752 42.3643L59.4407 42.571C58.9697 42.6443 59.3306 42.4488 58.8702 42.4599C58.8463 42.291 59.2682 42.2544 59.641 42.2377C59.3054 42.2177 58.9777 42.0944 58.8357 42.2799C58.52 42.2088 58.8702 42.0722 58.4908 42C58.2255 42.05 57.8659 42.2155 57.5621 42.1111V42.0811C56.8073 41.9067 56.4079 42.3377 55.7181 42.1655L55.7924 42.1089C55.5483 42.01 55.068 42.1422 54.6289 42.0378C54.7536 42.0722 54.8637 42.1944 54.5984 42.2144C54.0929 42.1033 53.748 42.2144 53.3792 42.0822L53.0236 42.2488C51.2632 42.2199 44.3102 42.4543 42.5417 42.481L42.6107 42.4543C39.9176 42.5376 34.3854 42.5243 31.5994 42.7531C31.1683 42.5898 30.5739 42.6276 30.1242 42.5821C30.3749 42.6498 30.2887 42.7665 30.0937 42.7598C28.7246 42.7409 30.0022 42.8709 28.6171 42.942C27.0251 43.0941 20.9225 42.9209 19.507 42.782C18.7455 43.023 17.7969 42.8409 17.0526 42.9931L17.1269 42.9364C16.3296 43.0264 11.807 42.8042 10.8784 42.8864L11.0031 42.9209C10.1925 43.0708 10.3026 42.8098 9.6645 42.7254C9.74807 42.9953 9.05291 43.1486 8.7889 43.1697L8.79819 43.1108C8.40019 43.1563 7.49408 43.3907 6.83474 43.4274L6.85994 43.2796C6.30938 43.4385 5.26795 43.3718 4.87924 43.3907C3.97048 43.3307 2.57484 43.0719 1.36625 43.2663L0.584854 42.8453L0.470761 42.8864C0.470761 42.8864 -0.78691 47.9739 0.809059 49.0569L0.783852 49.2047L1.0996 49.1858C1.47902 49.258 1.65414 49.0869 1.63026 49.2347L1.10888 49.218C1.48963 49.2602 1.2243 49.338 1.07837 49.4224C1.22889 49.4297 1.3773 49.4555 1.51882 49.499C1.59179 49.4402 1.45912 49.4402 1.40473 49.4046C1.60903 49.3524 1.89426 49.2147 2.14368 49.2824C2.53371 49.2958 2.16888 49.5212 2.6226 49.5368C5.0212 49.6479 7.3455 49.8223 9.77063 49.7889C9.82635 49.85 9.76001 49.8478 9.6897 49.8756C10.4207 49.8112 11.0694 49.8345 11.7354 49.7645C11.8587 49.8094 11.9605 49.8877 12.0246 49.9867C11.9145 49.8645 15.6981 49.8534 15.7578 49.8845Z" fill="black"/>
    <path d="M4.098 2.44424C3.954 2.03624 3.882 1.83224 3.882 1.83224C3.882 1.31624 4.218 0.938244 4.89 0.698244C5.358 0.530244 5.922 0.446244 6.582 0.446244C7.71 0.446244 8.448 0.518244 8.796 0.662243C9.108 0.782244 9.318 1.05824 9.426 1.49024C9.678 2.42624 9.852 3.00224 9.948 3.21824C10.092 3.63824 10.242 4.05824 10.398 4.47824C10.65 5.09024 10.89 5.39624 11.118 5.39624C11.442 5.39624 11.676 4.87424 11.82 3.83024C11.904 3.17024 11.988 2.50424 12.072 1.83224C12.252 1.22024 12.624 0.818243 13.188 0.626244C13.512 0.518244 14.088 0.458244 14.916 0.446244C16.788 0.446244 17.724 0.866244 17.724 1.70624C17.724 1.92224 17.55 2.22224 17.202 2.60624C16.866 2.99024 16.698 3.40424 16.698 3.84824C16.698 4.82024 16.83 6.09224 17.094 7.66424C17.346 8.92424 17.592 10.1842 17.832 11.4442C17.868 11.6722 18.048 11.9182 18.372 12.1822C18.696 12.4342 18.858 12.6922 18.858 12.9562C18.858 13.5082 18.396 13.8682 17.472 14.0362C17.064 14.1202 16.404 14.1622 15.492 14.1622C14.592 14.1622 13.938 14.1202 13.53 14.0362C12.63 13.8682 12.18 13.5142 12.18 12.9742C12.18 12.8062 12.234 12.6622 12.342 12.5422C12.462 12.4222 12.576 12.3082 12.684 12.2002C12.792 12.0802 12.888 11.6722 12.972 10.9762C13.044 10.3642 13.08 9.90224 13.08 9.59024C13.08 8.96624 13.08 8.63624 13.08 8.60024C13.02 8.18024 12.846 7.97024 12.558 7.97024C12.414 7.98224 12.288 8.19224 12.18 8.60024C11.976 9.29624 11.862 9.68024 11.838 9.75224C11.658 10.1722 11.43 10.3822 11.154 10.3822C10.842 10.3822 10.596 10.1782 10.416 9.77024C10.356 9.65024 10.242 9.26624 10.074 8.61824C9.954 8.21024 9.828 8.00624 9.696 8.00624C9.396 8.00624 9.234 8.73224 9.21 10.1842C9.318 10.5922 9.414 10.8562 9.498 10.9762C9.654 11.1442 9.816 11.3242 9.984 11.5162C10.164 11.7082 10.254 11.9002 10.254 12.0922C10.254 12.6322 10.194 13.0402 10.074 13.3162C9.978 13.7002 9.612 13.9522 8.976 14.0722C8.736 14.1202 8.43 14.1502 8.058 14.1622C7.698 14.1742 7.152 14.1802 6.42 14.1802C5.076 14.1802 4.182 14.0482 3.738 13.7842C3.294 13.5082 3.072 12.9862 3.072 12.2182C3.072 12.0382 3.186 11.8402 3.414 11.6242C3.69 11.3602 3.846 11.1862 3.882 11.1022C4.11 10.6462 4.368 9.54224 4.656 7.79024C4.92 6.13424 5.052 4.95224 5.052 4.24424C5.052 3.40424 4.734 2.80424 4.098 2.44424ZM20.9861 3.90224C20.9141 3.27824 20.7701 2.88224 20.5541 2.71424C20.4461 2.65424 20.2961 2.56424 20.1041 2.44424C19.9601 2.30024 19.8881 2.09624 19.8881 1.83224C19.8881 1.34024 20.2001 0.974244 20.8241 0.734243C21.3401 0.530244 21.9761 0.434244 22.7321 0.446244C22.8761 0.446244 23.0921 0.458244 23.3801 0.482243C23.6801 0.506244 23.9081 0.518244 24.0641 0.518244C24.4721 0.518244 25.1381 0.488244 26.0621 0.428244C26.9861 0.368243 27.6401 0.338243 28.0241 0.338243C28.5401 0.338243 28.9421 0.662243 29.2301 1.31024C29.4461 1.81424 29.5541 2.36024 29.5541 2.94824C29.5541 3.32024 29.4821 3.63224 29.3381 3.88424C29.1461 4.19624 28.8821 4.35224 28.5461 4.35224C28.2221 4.35224 27.9461 4.20224 27.7181 3.90224C27.3821 3.45824 27.1241 3.17624 26.9441 3.05624C26.5001 2.74424 25.8461 2.58824 24.9821 2.58824C24.7301 2.58824 24.5981 2.58824 24.5861 2.58824C24.4661 2.63624 24.3821 2.78024 24.3341 3.02024C24.3101 3.10424 24.2981 3.18824 24.2981 3.27224C24.2981 3.66824 24.4961 3.99224 24.8921 4.24424C25.2401 4.46024 25.6541 4.56824 26.1341 4.56824C26.2301 4.56824 26.3441 4.50224 26.4761 4.37024C26.6201 4.23824 26.7401 4.17224 26.8361 4.17224C27.0161 4.17224 27.1061 4.30424 27.1061 4.56824C27.1061 4.98824 27.0521 5.39024 26.9441 5.77424C26.7881 6.31424 26.5601 6.58424 26.2601 6.58424C26.0681 6.58424 25.8821 6.43424 25.7021 6.13424C25.5341 5.83424 25.2821 5.68424 24.9461 5.68424C24.5621 5.68424 24.3701 6.00224 24.3701 6.63824C24.3701 8.13824 25.2401 8.88824 26.9801 8.88824C27.0521 8.88824 27.1661 8.87024 27.3221 8.83424C27.4781 8.79824 27.5981 8.79224 27.6821 8.81624C27.7661 8.82824 27.8381 8.83424 27.8981 8.83424C28.1981 8.83424 28.4441 8.69024 28.6361 8.40224C28.8401 8.11424 29.0021 7.97024 29.1221 7.97024C29.3021 7.97024 29.4581 8.09024 29.5901 8.33024C29.7221 8.57024 29.7881 8.79224 29.7881 8.99624C29.7881 9.11624 29.8001 9.42824 29.8241 9.93224C29.8601 10.4242 29.8781 10.8322 29.8781 11.1562C29.8781 12.6202 29.5781 13.5682 28.9781 14.0002C28.7501 14.1562 27.9881 14.2342 26.6921 14.2342C26.3321 14.2342 25.8401 14.2402 25.2161 14.2522C24.7001 14.2642 24.1961 14.2642 23.7041 14.2522L20.3201 14.2342C19.7081 14.2222 19.4021 13.9282 19.4021 13.3522C19.4021 13.1242 19.4921 12.9202 19.6721 12.7402C19.9721 12.4402 20.1401 12.2542 20.1761 12.1822L20.5181 11.6422C20.6861 11.3662 20.7881 10.6822 20.8241 9.59024L20.9681 4.94624C20.9921 4.55024 20.9981 4.20224 20.9861 3.90224ZM35.8634 7.89824C35.8634 8.19824 35.9714 8.75024 36.1874 9.55424C36.4154 10.3462 36.5894 10.8262 36.7094 10.9942C36.8414 11.1622 36.9794 11.3302 37.1234 11.4982C37.3034 11.7022 37.4114 11.9002 37.4474 12.0922C37.4834 12.3322 37.5014 12.5482 37.5014 12.7402C37.5014 13.2682 37.3094 13.6402 36.9254 13.8562C36.6134 14.0242 36.0554 14.1262 35.2514 14.1622C34.8794 14.2102 34.0694 14.2342 32.8214 14.2342C32.3414 14.2342 31.8494 14.1382 31.3454 13.9462C30.9014 13.7902 30.6074 13.5682 30.4634 13.2802C30.3314 13.0762 30.2654 12.8362 30.2654 12.5602C30.2654 12.5122 30.2654 12.4642 30.2654 12.4162C30.2654 12.3562 30.2654 12.2902 30.2654 12.2182C30.2654 12.0622 30.3434 11.9002 30.4994 11.7322C30.6314 11.6002 30.7694 11.4622 30.9134 11.3182C31.2734 9.95024 31.5314 8.67824 31.6874 7.50224C31.8194 6.55424 31.9094 5.69024 31.9574 4.91024C32.0294 3.77024 31.8674 3.03824 31.4714 2.71424C31.3634 2.65424 31.2134 2.56424 31.0214 2.44424C30.8774 2.30024 30.8054 2.09624 30.8054 1.83224C30.8054 1.34024 31.1174 0.974244 31.7414 0.734243C32.2454 0.530244 32.8814 0.434244 33.6494 0.446244C34.9574 0.470243 35.7974 0.656243 36.1694 1.00424C36.7334 1.37624 37.2434 2.26424 37.6994 3.66824C38.2034 5.18024 38.6954 6.17024 39.1754 6.63824C39.2954 6.74624 39.4274 6.77624 39.5714 6.72824C39.7154 6.54824 39.7874 6.28424 39.7874 5.93624C39.7874 5.80424 39.7694 5.60024 39.7334 5.32424C39.7334 5.30024 39.7334 5.27024 39.7334 5.23424L39.7154 5.19824C39.6794 4.91024 39.6374 4.60424 39.5894 4.28024C39.3854 3.60824 39.0554 3.08624 38.5994 2.71424C38.4914 2.65424 38.3414 2.56424 38.1494 2.44424C38.0174 2.30024 37.9514 2.09624 37.9514 1.83224C37.9514 1.34024 38.2634 0.974244 38.8874 0.734243C39.3914 0.530244 40.0274 0.434244 40.7954 0.446244C41.8514 0.458244 42.6014 0.584243 43.0454 0.824243C43.4054 1.01624 43.5854 1.31024 43.5854 1.70624C43.5854 1.94624 43.5314 2.12024 43.4234 2.22824C43.3154 2.33624 43.2014 2.43824 43.0814 2.53424C42.9614 2.63024 42.8654 2.76224 42.7934 2.93024C42.6494 3.18224 42.5054 3.44024 42.3614 3.70424C42.1454 4.14824 42.0374 4.64624 42.0374 5.19824C42.0374 5.17424 42.0374 5.25224 42.0374 5.43224C42.0614 6.09224 42.2474 7.08824 42.5954 8.42024C42.9194 9.69224 43.0814 10.6822 43.0814 11.3902C43.0814 12.3262 43.0034 12.9742 42.8474 13.3342C42.5954 13.8982 42.0734 14.1802 41.2814 14.1802C40.4054 14.1802 39.6134 13.6102 38.9054 12.4702C38.7254 12.1702 38.2334 11.1142 37.4294 9.30224C36.9254 8.16224 36.4694 7.59224 36.0614 7.59224C35.9294 7.59224 35.8634 7.69424 35.8634 7.89824ZM55.4273 5.55824C55.4273 5.96624 55.4333 6.57824 55.4453 7.39424C55.4693 8.19824 55.4813 8.80424 55.4813 9.21224C55.4813 10.3762 54.9713 11.4862 53.9512 12.5422C52.9313 13.5862 51.8333 14.1082 50.6573 14.1082C48.5333 14.1082 47.0393 13.7062 46.1753 12.9022C45.2753 12.0742 44.8253 10.6282 44.8253 8.56424C44.8253 8.16824 44.8433 7.57424 44.8793 6.78224C44.9273 5.99024 44.9513 5.39624 44.9513 5.00024C44.9513 4.12424 44.8553 3.48224 44.6633 3.07424C44.5673 2.88224 44.3813 2.67824 44.1053 2.46224C43.9013 2.30624 43.7993 2.09624 43.7993 1.83224C43.7993 1.31624 44.1413 0.938244 44.8253 0.698244C45.2933 0.530244 45.8513 0.446244 46.4993 0.446244C48.4673 0.446244 49.4513 0.866244 49.4513 1.70624C49.4513 1.97024 49.3493 2.19224 49.1453 2.37224C48.8693 2.61224 48.7013 2.79824 48.6413 2.93024C48.4373 3.41024 48.3353 4.21424 48.3353 5.34224L48.3173 5.30624C48.3293 6.41024 48.4373 7.15424 48.6413 7.53824C48.9533 8.09024 49.6193 8.36624 50.6393 8.36624C51.5033 8.36624 52.0853 8.18624 52.3853 7.82624C52.6973 7.46624 52.8533 6.84224 52.8533 5.95424C52.8533 5.04224 52.8173 4.32824 52.7453 3.81224C52.6613 3.18824 52.4513 2.77424 52.1153 2.57024C51.8153 2.40224 51.6653 2.15624 51.6653 1.83224C51.6653 0.908244 52.6133 0.446244 54.5093 0.446244C55.0013 0.446244 55.4333 0.524244 55.8053 0.680244C56.2973 0.896243 56.5433 1.22024 56.5433 1.65224C56.5433 1.91624 56.4413 2.13824 56.2373 2.31824C55.9733 2.54624 55.8113 2.72624 55.7513 2.85824C55.5353 3.38624 55.4273 4.28624 55.4273 5.55824Z" fill="black"/>
    </svg>
    