<svg fill="none" xmlns="http://www.w3.org/2000/svg">
    <path d="M224.432 0.423387L226.555 0.504032C218.96 2.61089 179.317 3.87097 172.311 6.55242L175.511 8.31149L169.574 9.62702C170.281 9.32964 172.048 5.14113 172.803 4.69254C159.441 4.69254 93.1824 5.04536 81.3739 3.72984C76.5916 2.72177 80.5386 1.00302 80.5951 0.730847C74.7675 1.28528 78.0808 2.52016 73.1169 2.29335C71.7649 1.96573 73.4074 0.957661 74.1742 0.720766C71.999 0.892137 69.9892 0.272177 69.8157 1.06855C72.5277 1.72883 71.3573 3.83569 72.4954 5.23185L66.1189 4.95968L66.4136 3.62399C64.9889 3.55847 62.7814 7.2379 56.514 6.42641C45.9485 5.7006 34.4588 6.00806 23.8247 5.54435C23.9982 4.74294 26.2461 4.2994 28.4778 3.86089C27.0492 3.8004 24.878 3.97177 23.5704 3.35685C26.125 4.81351 19.0988 4.23891 21.1006 4.86895C14.9057 7.38911 7.30649 5.93246 0.990601 6.28024V63.5837C2.03661 63.5113 3.08567 63.613 4.11021 63.8861L4.04564 64.1532C12.2583 65.8569 16.6532 62.001 24.1556 63.6492L23.3485 64.1532C25.9959 65.0806 31.2383 63.9617 36.0246 64.9748C34.6606 64.6472 33.4821 63.5181 36.3636 63.377C41.8643 64.4204 45.6458 63.5081 49.6532 64.7581L53.5316 63.3115C72.7133 63.876 148.516 62.8075 167.795 62.8377L167.036 63.0645C181.565 62.8982 203.664 63.0645 225.957 63.0645C226.304 62.5252 226.648 61.9859 226.995 61.4516V0C226.167 0.120968 225.32 0.257056 224.432 0.423387Z" fill="#FFEE59"/>
</svg>
